ISO-10303-21;
HEADER;
FILE_DESCRIPTION(('FreeCAD Model'),'2;1');
FILE_NAME('Open CASCADE Shape Model','2026-09-14T00:06:17',('FreeCAD'),(
    'FreeCAD'),'Open CASCADE STEP processor 7.8','FreeCAD','Unknown');
FILE_SCHEMA(('AUTOMOTIVE_DESIGN { 1 0 10303 214 1 1 1 1 }'));
ENDSEC;
DATA;
#1 = APPLICATION_PROTOCOL_DEFINITION('international standard',
  'automotive_design',2000,#2);
#2 = APPLICATION_CONTEXT(
  'core data for automotive mechanical design processes');
#3 = SHAPE_DEFINITION_REPRESENTATION(#4,#10);
#4 = PRODUCT_DEFINITION_SHAPE('','',#5);
#5 = PRODUCT_DEFINITION('design','',#6,#9);
#6 = PRODUCT_DEFINITION_FORMATION('','',#7);
#7 = PRODUCT('Open CASCADE STEP translator 7.8 2',
  'Open CASCADE STEP translator 7.8 2','',(#8));
#8 = PRODUCT_CONTEXT('',#2,'mechanical');
#9 = PRODUCT_DEFINITION_CONTEXT('part definition',#2,'design');
#10 = ADVANCED_BREP_SHAPE_REPRESENTATION('',(#11,#15),#1046);
#11 = AXIS2_PLACEMENT_3D('',#12,#13,#14);
#12 = CARTESIAN_POINT('',(0.,0.,0.));
#13 = DIRECTION('',(0.,0.,1.));
#14 = DIRECTION('',(1.,0.,-0.));
#15 = MANIFOLD_SOLID_BREP('',#16);
#16 = CLOSED_SHELL('',(#17,#75,#278,#330,#526,#561,#596,#635,#649,#671,
    #688,#700,#722,#739,#751,#773,#790,#802,#824,#841,#853,#875,#892,
    #904,#926,#943,#955,#984,#1013,#1032));
#17 = ADVANCED_FACE('',(#18),#70,.F.);
#18 = FACE_BOUND('',#19,.F.);
#19 = EDGE_LOOP('',(#20,#30,#38,#47,#55,#63));
#20 = ORIENTED_EDGE('',*,*,#21,.F.);
#21 = EDGE_CURVE('',#22,#24,#26,.T.);
#22 = VERTEX_POINT('',#23);
#23 = CARTESIAN_POINT('',(-20.,115.,0.));
#24 = VERTEX_POINT('',#25);
#25 = CARTESIAN_POINT('',(-27.75160248944,3.570714214271,0.));
#26 = LINE('',#27,#28);
#27 = CARTESIAN_POINT('',(-20.,115.,0.));
#28 = VECTOR('',#29,1.);
#29 = DIRECTION('',(-6.939750171322E-02,-0.997589087128,0.));
#30 = ORIENTED_EDGE('',*,*,#31,.T.);
#31 = EDGE_CURVE('',#22,#32,#34,.T.);
#32 = VERTEX_POINT('',#33);
#33 = CARTESIAN_POINT('',(-20.,115.,1.5));
#34 = LINE('',#35,#36);
#35 = CARTESIAN_POINT('',(-20.,115.,0.));
#36 = VECTOR('',#37,1.);
#37 = DIRECTION('',(0.,0.,1.));
#38 = ORIENTED_EDGE('',*,*,#39,.F.);
#39 = EDGE_CURVE('',#40,#32,#42,.T.);
#40 = VERTEX_POINT('',#41);
#41 = CARTESIAN_POINT('',(-20.,115.,5.5));
#42 = ELLIPSE('',#43,2.004833478841,2.);
#43 = AXIS2_PLACEMENT_3D('',#44,#45,#46);
#44 = CARTESIAN_POINT('',(-20.,115.,3.5));
#45 = DIRECTION('',(0.997589087128,-6.939750171322E-02,0.));
#46 = DIRECTION('',(6.939750171322E-02,0.997589087128,0.));
#47 = ORIENTED_EDGE('',*,*,#48,.T.);
#48 = EDGE_CURVE('',#40,#49,#51,.T.);
#49 = VERTEX_POINT('',#50);
#50 = CARTESIAN_POINT('',(-20.,115.,7.));
#51 = LINE('',#52,#53);
#52 = CARTESIAN_POINT('',(-20.,115.,0.));
#53 = VECTOR('',#54,1.);
#54 = DIRECTION('',(0.,0.,1.));
#55 = ORIENTED_EDGE('',*,*,#56,.T.);
#56 = EDGE_CURVE('',#49,#57,#59,.T.);
#57 = VERTEX_POINT('',#58);
#58 = CARTESIAN_POINT('',(-27.75160248944,3.570714214271,7.));
#59 = LINE('',#60,#61);
#60 = CARTESIAN_POINT('',(-20.,115.,7.));
#61 = VECTOR('',#62,1.);
#62 = DIRECTION('',(-6.939750171322E-02,-0.997589087128,0.));
#63 = ORIENTED_EDGE('',*,*,#64,.F.);
#64 = EDGE_CURVE('',#24,#57,#65,.T.);
#65 = ELLIPSE('',#66,5.012083697103,5.);
#66 = AXIS2_PLACEMENT_3D('',#67,#68,#69);
#67 = CARTESIAN_POINT('',(-28.,0.,3.5));
#68 = DIRECTION('',(0.997589087128,-6.939750171322E-02,0.));
#69 = DIRECTION('',(6.939750171322E-02,0.997589087128,0.));
#70 = PLANE('',#71);
#71 = AXIS2_PLACEMENT_3D('',#72,#73,#74);
#72 = CARTESIAN_POINT('',(-20.,115.,0.));
#73 = DIRECTION('',(0.997589087128,-6.939750171322E-02,0.));
#74 = DIRECTION('',(-6.939750171322E-02,-0.997589087128,0.));
#75 = ADVANCED_FACE('',(#76,#117,#143,#169,#195,#221,#247),#273,.F.);
#76 = FACE_BOUND('',#77,.F.);
#77 = EDGE_LOOP('',(#78,#86,#87,#95,#103,#111));
#78 = ORIENTED_EDGE('',*,*,#79,.T.);
#79 = EDGE_CURVE('',#80,#22,#82,.T.);
#80 = VERTEX_POINT('',#81);
#81 = CARTESIAN_POINT('',(-20.,111.42928578572,8.881784197001E-16));
#82 = LINE('',#83,#84);
#83 = CARTESIAN_POINT('',(-20.,84.841358875041,0.));
#84 = VECTOR('',#85,1.);
#85 = DIRECTION('',(0.,1.,0.));
#86 = ORIENTED_EDGE('',*,*,#21,.T.);
#87 = ORIENTED_EDGE('',*,*,#88,.T.);
#88 = EDGE_CURVE('',#24,#89,#91,.T.);
#89 = VERTEX_POINT('',#90);
#90 = CARTESIAN_POINT('',(27.751602489442,3.570714214271,0.));
#91 = LINE('',#92,#93);
#92 = CARTESIAN_POINT('',(-28.,3.570714214271,0.));
#93 = VECTOR('',#94,1.);
#94 = DIRECTION('',(1.,0.,0.));
#95 = ORIENTED_EDGE('',*,*,#96,.T.);
#96 = EDGE_CURVE('',#89,#97,#99,.T.);
#97 = VERTEX_POINT('',#98);
#98 = CARTESIAN_POINT('',(20.,115.,0.));
#99 = LINE('',#100,#101);
#100 = CARTESIAN_POINT('',(28.,0.,0.));
#101 = VECTOR('',#102,1.);
#102 = DIRECTION('',(-6.939750171322E-02,0.997589087128,0.));
#103 = ORIENTED_EDGE('',*,*,#104,.F.);
#104 = EDGE_CURVE('',#105,#97,#107,.T.);
#105 = VERTEX_POINT('',#106);
#106 = CARTESIAN_POINT('',(20.,111.42928578572,8.881784197001E-16));
#107 = LINE('',#108,#109);
#108 = CARTESIAN_POINT('',(20.,84.841358875041,0.));
#109 = VECTOR('',#110,1.);
#110 = DIRECTION('',(0.,1.,0.));
#111 = ORIENTED_EDGE('',*,*,#112,.F.);
#112 = EDGE_CURVE('',#80,#105,#113,.T.);
#113 = LINE('',#114,#115);
#114 = CARTESIAN_POINT('',(-20.,111.42928578572,0.));
#115 = VECTOR('',#116,1.);
#116 = DIRECTION('',(1.,0.,0.));
#117 = FACE_BOUND('',#118,.F.);
#118 = EDGE_LOOP('',(#119,#129,#137));
#119 = ORIENTED_EDGE('',*,*,#120,.T.);
#120 = EDGE_CURVE('',#121,#123,#125,.T.);
#121 = VERTEX_POINT('',#122);
#122 = CARTESIAN_POINT('',(-4.,45.,0.));
#123 = VERTEX_POINT('',#124);
#124 = CARTESIAN_POINT('',(-4.,12.,0.));
#125 = LINE('',#126,#127);
#126 = CARTESIAN_POINT('',(-4.,33.341358875041,0.));
#127 = VECTOR('',#128,1.);
#128 = DIRECTION('',(0.,-1.,0.));
#129 = ORIENTED_EDGE('',*,*,#130,.T.);
#130 = EDGE_CURVE('',#123,#131,#133,.T.);
#131 = VERTEX_POINT('',#132);
#132 = CARTESIAN_POINT('',(-21.,12.,0.));
#133 = LINE('',#134,#135);
#134 = CARTESIAN_POINT('',(-10.5,12.,0.));
#135 = VECTOR('',#136,1.);
#136 = DIRECTION('',(-1.,0.,0.));
#137 = ORIENTED_EDGE('',*,*,#138,.T.);
#138 = EDGE_CURVE('',#131,#121,#139,.T.);
#139 = LINE('',#140,#141);
#140 = CARTESIAN_POINT('',(-1.609577410089,49.640232086299,0.));
#141 = VECTOR('',#142,1.);
#142 = DIRECTION('',(0.457956589674,0.888974556427,0.));
#143 = FACE_BOUND('',#144,.F.);
#144 = EDGE_LOOP('',(#145,#155,#163));
#145 = ORIENTED_EDGE('',*,*,#146,.T.);
#146 = EDGE_CURVE('',#147,#149,#151,.T.);
#147 = VERTEX_POINT('',#148);
#148 = CARTESIAN_POINT('',(-20.,74.,0.));
#149 = VERTEX_POINT('',#150);
#150 = CARTESIAN_POINT('',(-7.,53.,0.));
#151 = LINE('',#152,#153);
#152 = CARTESIAN_POINT('',(-6.406870447354,52.041867645726,0.));
#153 = VECTOR('',#154,1.);
#154 = DIRECTION('',(0.526354614616,-0.850265146688,0.));
#155 = ORIENTED_EDGE('',*,*,#156,.T.);
#156 = EDGE_CURVE('',#149,#157,#159,.T.);
#157 = VERTEX_POINT('',#158);
#158 = CARTESIAN_POINT('',(-19.,25.,0.));
#159 = LINE('',#160,#161);
#160 = CARTESIAN_POINT('',(-12.1522666142,40.978044566845,0.));
#161 = VECTOR('',#162,1.);
#162 = DIRECTION('',(-0.393919298579,-0.919145030018,0.));
#163 = ORIENTED_EDGE('',*,*,#164,.T.);
#164 = EDGE_CURVE('',#157,#147,#165,.T.);
#165 = LINE('',#166,#167);
#166 = CARTESIAN_POINT('',(-19.79880374058,64.141383288498,
    1.110223024625E-16));
#167 = VECTOR('',#168,1.);
#168 = DIRECTION('',(-2.040391466252E-02,0.999791818463,0.));
#169 = FACE_BOUND('',#170,.F.);
#170 = EDGE_LOOP('',(#171,#181,#189));
#171 = ORIENTED_EDGE('',*,*,#172,.T.);
#172 = EDGE_CURVE('',#173,#175,#177,.T.);
#173 = VERTEX_POINT('',#174);
#174 = CARTESIAN_POINT('',(4.,45.,0.));
#175 = VERTEX_POINT('',#176);
#176 = CARTESIAN_POINT('',(21.,12.,0.));
#177 = LINE('',#178,#179);
#178 = CARTESIAN_POINT('',(10.109577410089,33.140232086299,0.));
#179 = VECTOR('',#180,1.);
#180 = DIRECTION('',(0.457956589674,-0.888974556427,0.));
#181 = ORIENTED_EDGE('',*,*,#182,.T.);
#182 = EDGE_CURVE('',#175,#183,#185,.T.);
#183 = VERTEX_POINT('',#184);
#184 = CARTESIAN_POINT('',(4.,12.,0.));
#185 = LINE('',#186,#187);
#186 = CARTESIAN_POINT('',(2.,12.,0.));
#187 = VECTOR('',#188,1.);
#188 = DIRECTION('',(-1.,0.,0.));
#189 = ORIENTED_EDGE('',*,*,#190,.T.);
#190 = EDGE_CURVE('',#183,#173,#191,.T.);
#191 = LINE('',#192,#193);
#192 = CARTESIAN_POINT('',(4.,49.841358875041,0.));
#193 = VECTOR('',#194,1.);
#194 = DIRECTION('',(0.,1.,0.));
#195 = FACE_BOUND('',#196,.F.);
#196 = EDGE_LOOP('',(#197,#207,#215));
#197 = ORIENTED_EDGE('',*,*,#198,.T.);
#198 = EDGE_CURVE('',#199,#201,#203,.T.);
#199 = VERTEX_POINT('',#200);
#200 = CARTESIAN_POINT('',(7.,53.,0.));
#201 = VERTEX_POINT('',#202);
#202 = CARTESIAN_POINT('',(20.,74.,0.));
#203 = LINE('',#204,#205);
#204 = CARTESIAN_POINT('',(12.906870447354,62.541867645726,0.));
#205 = VECTOR('',#206,1.);
#206 = DIRECTION('',(0.526354614616,0.850265146688,0.));
#207 = ORIENTED_EDGE('',*,*,#208,.T.);
#208 = EDGE_CURVE('',#201,#209,#211,.T.);
#209 = VERTEX_POINT('',#210);
#210 = CARTESIAN_POINT('',(19.,25.,0.));
#211 = LINE('',#212,#213);
#212 = CARTESIAN_POINT('',(19.298803740582,39.641383288498,
    1.110223024625E-16));
#213 = VECTOR('',#214,1.);
#214 = DIRECTION('',(-2.040391466252E-02,-0.999791818463,0.));
#215 = ORIENTED_EDGE('',*,*,#216,.T.);
#216 = EDGE_CURVE('',#209,#199,#217,.T.);
#217 = LINE('',#218,#219);
#218 = CARTESIAN_POINT('',(6.152266614209,54.978044566845,0.));
#219 = VECTOR('',#220,1.);
#220 = DIRECTION('',(-0.393919298579,0.919145030018,0.));
#221 = FACE_BOUND('',#222,.F.);
#222 = EDGE_LOOP('',(#223,#233,#241));
#223 = ORIENTED_EDGE('',*,*,#224,.T.);
#224 = EDGE_CURVE('',#225,#227,#229,.T.);
#225 = VERTEX_POINT('',#226);
#226 = CARTESIAN_POINT('',(-4.,103.,0.));
#227 = VERTEX_POINT('',#228);
#228 = CARTESIAN_POINT('',(-4.,65.,0.));
#229 = LINE('',#230,#231);
#230 = CARTESIAN_POINT('',(-4.,59.841358875041,0.));
#231 = VECTOR('',#232,1.);
#232 = DIRECTION('',(0.,-1.,0.));
#233 = ORIENTED_EDGE('',*,*,#234,.T.);
#234 = EDGE_CURVE('',#227,#235,#237,.T.);
#235 = VERTEX_POINT('',#236);
#236 = CARTESIAN_POINT('',(-18.,80.,0.));
#237 = LINE('',#238,#239);
#238 = CARTESIAN_POINT('',(-7.495689700139,68.745381821578,0.));
#239 = VECTOR('',#240,1.);
#240 = DIRECTION('',(-0.68231825036,0.731055268243,0.));
#241 = ORIENTED_EDGE('',*,*,#242,.T.);
#242 = EDGE_CURVE('',#235,#225,#243,.T.);
#243 = LINE('',#244,#245);
#244 = CARTESIAN_POINT('',(-14.18907923067,86.260798406754,0.));
#245 = VECTOR('',#246,1.);
#246 = DIRECTION('',(0.519946946896,0.854198555614,0.));
#247 = FACE_BOUND('',#248,.F.);
#248 = EDGE_LOOP('',(#249,#259,#267));
#249 = ORIENTED_EDGE('',*,*,#250,.T.);
#250 = EDGE_CURVE('',#251,#253,#255,.T.);
#251 = VERTEX_POINT('',#252);
#252 = CARTESIAN_POINT('',(4.,103.,0.));
#253 = VERTEX_POINT('',#254);
#254 = CARTESIAN_POINT('',(18.,80.,0.));
#255 = LINE('',#256,#257);
#256 = CARTESIAN_POINT('',(21.189079230671,74.760798406754,0.));
#257 = VECTOR('',#258,1.);
#258 = DIRECTION('',(0.519946946896,-0.854198555614,0.));
#259 = ORIENTED_EDGE('',*,*,#260,.T.);
#260 = EDGE_CURVE('',#253,#261,#263,.T.);
#261 = VERTEX_POINT('',#262);
#262 = CARTESIAN_POINT('',(4.,65.,0.));
#263 = LINE('',#264,#265);
#264 = CARTESIAN_POINT('',(0.495689700139,61.245381821578,0.));
#265 = VECTOR('',#266,1.);
#266 = DIRECTION('',(-0.68231825036,-0.731055268243,0.));
#267 = ORIENTED_EDGE('',*,*,#268,.T.);
#268 = EDGE_CURVE('',#261,#251,#269,.T.);
#269 = LINE('',#270,#271);
#270 = CARTESIAN_POINT('',(4.,78.841358875041,0.));
#271 = VECTOR('',#272,1.);
#272 = DIRECTION('',(0.,1.,0.));
#273 = PLANE('',#274);
#274 = AXIS2_PLACEMENT_3D('',#275,#276,#277);
#275 = CARTESIAN_POINT('',(0.,54.682717750082,0.));
#276 = DIRECTION('',(0.,0.,1.));
#277 = DIRECTION('',(1.,0.,0.));
#278 = ADVANCED_FACE('',(#279,#306),#325,.T.);
#279 = FACE_BOUND('',#280,.T.);
#280 = EDGE_LOOP('',(#281,#291,#298,#299));
#281 = ORIENTED_EDGE('',*,*,#282,.T.);
#282 = EDGE_CURVE('',#283,#285,#287,.T.);
#283 = VERTEX_POINT('',#284);
#284 = CARTESIAN_POINT('',(-28.,1.224646799147E-15,8.5));
#285 = VERTEX_POINT('',#286);
#286 = CARTESIAN_POINT('',(28.,1.224646799147E-15,8.5));
#287 = LINE('',#288,#289);
#288 = CARTESIAN_POINT('',(-28.,1.224646799147E-15,8.5));
#289 = VECTOR('',#290,1.);
#290 = DIRECTION('',(1.,0.,0.));
#291 = ORIENTED_EDGE('',*,*,#292,.F.);
#292 = EDGE_CURVE('',#285,#285,#293,.T.);
#293 = CIRCLE('',#294,5.);
#294 = AXIS2_PLACEMENT_3D('',#295,#296,#297);
#295 = CARTESIAN_POINT('',(28.,0.,3.5));
#296 = DIRECTION('',(1.,0.,-0.));
#297 = DIRECTION('',(0.,0.,1.));
#298 = ORIENTED_EDGE('',*,*,#282,.F.);
#299 = ORIENTED_EDGE('',*,*,#300,.T.);
#300 = EDGE_CURVE('',#283,#283,#301,.T.);
#301 = CIRCLE('',#302,5.);
#302 = AXIS2_PLACEMENT_3D('',#303,#304,#305);
#303 = CARTESIAN_POINT('',(-28.,0.,3.5));
#304 = DIRECTION('',(1.,0.,-0.));
#305 = DIRECTION('',(0.,0.,1.));
#306 = FACE_BOUND('',#307,.T.);
#307 = EDGE_LOOP('',(#308,#309,#310,#319));
#308 = ORIENTED_EDGE('',*,*,#64,.F.);
#309 = ORIENTED_EDGE('',*,*,#88,.T.);
#310 = ORIENTED_EDGE('',*,*,#311,.F.);
#311 = EDGE_CURVE('',#312,#89,#314,.T.);
#312 = VERTEX_POINT('',#313);
#313 = CARTESIAN_POINT('',(27.751602489442,3.570714214271,7.));
#314 = ELLIPSE('',#315,5.012083697103,5.);
#315 = AXIS2_PLACEMENT_3D('',#316,#317,#318);
#316 = CARTESIAN_POINT('',(28.,0.,3.5));
#317 = DIRECTION('',(-0.997589087128,-6.939750171322E-02,0.));
#318 = DIRECTION('',(6.939750171322E-02,-0.997589087128,0.));
#319 = ORIENTED_EDGE('',*,*,#320,.F.);
#320 = EDGE_CURVE('',#57,#312,#321,.T.);
#321 = LINE('',#322,#323);
#322 = CARTESIAN_POINT('',(-28.,3.570714214271,7.));
#323 = VECTOR('',#324,1.);
#324 = DIRECTION('',(1.,0.,0.));
#325 = CYLINDRICAL_SURFACE('',#326,5.);
#326 = AXIS2_PLACEMENT_3D('',#327,#328,#329);
#327 = CARTESIAN_POINT('',(-28.,0.,3.5));
#328 = DIRECTION('',(1.,0.,0.));
#329 = DIRECTION('',(0.,0.,1.));
#330 = ADVANCED_FACE('',(#331,#365,#391,#417,#443,#469,#495),#521,.T.);
#331 = FACE_BOUND('',#332,.T.);
#332 = EDGE_LOOP('',(#333,#341,#342,#343,#351,#359));
#333 = ORIENTED_EDGE('',*,*,#334,.T.);
#334 = EDGE_CURVE('',#335,#49,#337,.T.);
#335 = VERTEX_POINT('',#336);
#336 = CARTESIAN_POINT('',(-20.,111.42928578572,7.));
#337 = LINE('',#338,#339);
#338 = CARTESIAN_POINT('',(-20.,84.841358875041,7.));
#339 = VECTOR('',#340,1.);
#340 = DIRECTION('',(0.,1.,0.));
#341 = ORIENTED_EDGE('',*,*,#56,.T.);
#342 = ORIENTED_EDGE('',*,*,#320,.T.);
#343 = ORIENTED_EDGE('',*,*,#344,.T.);
#344 = EDGE_CURVE('',#312,#345,#347,.T.);
#345 = VERTEX_POINT('',#346);
#346 = CARTESIAN_POINT('',(20.,115.,7.));
#347 = LINE('',#348,#349);
#348 = CARTESIAN_POINT('',(28.,0.,7.));
#349 = VECTOR('',#350,1.);
#350 = DIRECTION('',(-6.939750171322E-02,0.997589087128,0.));
#351 = ORIENTED_EDGE('',*,*,#352,.F.);
#352 = EDGE_CURVE('',#353,#345,#355,.T.);
#353 = VERTEX_POINT('',#354);
#354 = CARTESIAN_POINT('',(20.,111.42928578572,7.));
#355 = LINE('',#356,#357);
#356 = CARTESIAN_POINT('',(20.,84.841358875041,7.));
#357 = VECTOR('',#358,1.);
#358 = DIRECTION('',(0.,1.,0.));
#359 = ORIENTED_EDGE('',*,*,#360,.F.);
#360 = EDGE_CURVE('',#335,#353,#361,.T.);
#361 = LINE('',#362,#363);
#362 = CARTESIAN_POINT('',(-20.,111.42928578572,7.));
#363 = VECTOR('',#364,1.);
#364 = DIRECTION('',(1.,0.,0.));
#365 = FACE_BOUND('',#366,.T.);
#366 = EDGE_LOOP('',(#367,#377,#385));
#367 = ORIENTED_EDGE('',*,*,#368,.T.);
#368 = EDGE_CURVE('',#369,#371,#373,.T.);
#369 = VERTEX_POINT('',#370);
#370 = CARTESIAN_POINT('',(-4.,45.,7.));
#371 = VERTEX_POINT('',#372);
#372 = CARTESIAN_POINT('',(-4.,12.,7.));
#373 = LINE('',#374,#375);
#374 = CARTESIAN_POINT('',(-4.,33.341358875041,7.));
#375 = VECTOR('',#376,1.);
#376 = DIRECTION('',(0.,-1.,0.));
#377 = ORIENTED_EDGE('',*,*,#378,.T.);
#378 = EDGE_CURVE('',#371,#379,#381,.T.);
#379 = VERTEX_POINT('',#380);
#380 = CARTESIAN_POINT('',(-21.,12.,7.));
#381 = LINE('',#382,#383);
#382 = CARTESIAN_POINT('',(-10.5,12.,7.));
#383 = VECTOR('',#384,1.);
#384 = DIRECTION('',(-1.,0.,0.));
#385 = ORIENTED_EDGE('',*,*,#386,.T.);
#386 = EDGE_CURVE('',#379,#369,#387,.T.);
#387 = LINE('',#388,#389);
#388 = CARTESIAN_POINT('',(-1.609577410089,49.640232086299,7.));
#389 = VECTOR('',#390,1.);
#390 = DIRECTION('',(0.457956589674,0.888974556427,0.));
#391 = FACE_BOUND('',#392,.T.);
#392 = EDGE_LOOP('',(#393,#403,#411));
#393 = ORIENTED_EDGE('',*,*,#394,.T.);
#394 = EDGE_CURVE('',#395,#397,#399,.T.);
#395 = VERTEX_POINT('',#396);
#396 = CARTESIAN_POINT('',(-20.,74.,7.));
#397 = VERTEX_POINT('',#398);
#398 = CARTESIAN_POINT('',(-7.,53.,7.));
#399 = LINE('',#400,#401);
#400 = CARTESIAN_POINT('',(-6.406870447354,52.041867645726,7.));
#401 = VECTOR('',#402,1.);
#402 = DIRECTION('',(0.526354614616,-0.850265146688,0.));
#403 = ORIENTED_EDGE('',*,*,#404,.T.);
#404 = EDGE_CURVE('',#397,#405,#407,.T.);
#405 = VERTEX_POINT('',#406);
#406 = CARTESIAN_POINT('',(-19.,25.,7.));
#407 = LINE('',#408,#409);
#408 = CARTESIAN_POINT('',(-12.1522666142,40.978044566845,7.));
#409 = VECTOR('',#410,1.);
#410 = DIRECTION('',(-0.393919298579,-0.919145030018,0.));
#411 = ORIENTED_EDGE('',*,*,#412,.T.);
#412 = EDGE_CURVE('',#405,#395,#413,.T.);
#413 = LINE('',#414,#415);
#414 = CARTESIAN_POINT('',(-19.79880374058,64.141383288498,7.));
#415 = VECTOR('',#416,1.);
#416 = DIRECTION('',(-2.040391466252E-02,0.999791818463,0.));
#417 = FACE_BOUND('',#418,.T.);
#418 = EDGE_LOOP('',(#419,#429,#437));
#419 = ORIENTED_EDGE('',*,*,#420,.T.);
#420 = EDGE_CURVE('',#421,#423,#425,.T.);
#421 = VERTEX_POINT('',#422);
#422 = CARTESIAN_POINT('',(4.,45.,7.));
#423 = VERTEX_POINT('',#424);
#424 = CARTESIAN_POINT('',(21.,12.,7.));
#425 = LINE('',#426,#427);
#426 = CARTESIAN_POINT('',(10.109577410089,33.140232086299,7.));
#427 = VECTOR('',#428,1.);
#428 = DIRECTION('',(0.457956589674,-0.888974556427,0.));
#429 = ORIENTED_EDGE('',*,*,#430,.T.);
#430 = EDGE_CURVE('',#423,#431,#433,.T.);
#431 = VERTEX_POINT('',#432);
#432 = CARTESIAN_POINT('',(4.,12.,7.));
#433 = LINE('',#434,#435);
#434 = CARTESIAN_POINT('',(2.,12.,7.));
#435 = VECTOR('',#436,1.);
#436 = DIRECTION('',(-1.,0.,0.));
#437 = ORIENTED_EDGE('',*,*,#438,.T.);
#438 = EDGE_CURVE('',#431,#421,#439,.T.);
#439 = LINE('',#440,#441);
#440 = CARTESIAN_POINT('',(4.,49.841358875041,7.));
#441 = VECTOR('',#442,1.);
#442 = DIRECTION('',(0.,1.,0.));
#443 = FACE_BOUND('',#444,.T.);
#444 = EDGE_LOOP('',(#445,#455,#463));
#445 = ORIENTED_EDGE('',*,*,#446,.T.);
#446 = EDGE_CURVE('',#447,#449,#451,.T.);
#447 = VERTEX_POINT('',#448);
#448 = CARTESIAN_POINT('',(7.,53.,7.));
#449 = VERTEX_POINT('',#450);
#450 = CARTESIAN_POINT('',(20.,74.,7.));
#451 = LINE('',#452,#453);
#452 = CARTESIAN_POINT('',(12.906870447354,62.541867645726,7.));
#453 = VECTOR('',#454,1.);
#454 = DIRECTION('',(0.526354614616,0.850265146688,0.));
#455 = ORIENTED_EDGE('',*,*,#456,.T.);
#456 = EDGE_CURVE('',#449,#457,#459,.T.);
#457 = VERTEX_POINT('',#458);
#458 = CARTESIAN_POINT('',(19.,25.,7.));
#459 = LINE('',#460,#461);
#460 = CARTESIAN_POINT('',(19.298803740582,39.641383288498,7.));
#461 = VECTOR('',#462,1.);
#462 = DIRECTION('',(-2.040391466252E-02,-0.999791818463,0.));
#463 = ORIENTED_EDGE('',*,*,#464,.T.);
#464 = EDGE_CURVE('',#457,#447,#465,.T.);
#465 = LINE('',#466,#467);
#466 = CARTESIAN_POINT('',(6.152266614209,54.978044566845,7.));
#467 = VECTOR('',#468,1.);
#468 = DIRECTION('',(-0.393919298579,0.919145030018,0.));
#469 = FACE_BOUND('',#470,.T.);
#470 = EDGE_LOOP('',(#471,#481,#489));
#471 = ORIENTED_EDGE('',*,*,#472,.T.);
#472 = EDGE_CURVE('',#473,#475,#477,.T.);
#473 = VERTEX_POINT('',#474);
#474 = CARTESIAN_POINT('',(-4.,103.,7.));
#475 = VERTEX_POINT('',#476);
#476 = CARTESIAN_POINT('',(-4.,65.,7.));
#477 = LINE('',#478,#479);
#478 = CARTESIAN_POINT('',(-4.,59.841358875041,7.));
#479 = VECTOR('',#480,1.);
#480 = DIRECTION('',(0.,-1.,0.));
#481 = ORIENTED_EDGE('',*,*,#482,.T.);
#482 = EDGE_CURVE('',#475,#483,#485,.T.);
#483 = VERTEX_POINT('',#484);
#484 = CARTESIAN_POINT('',(-18.,80.,7.));
#485 = LINE('',#486,#487);
#486 = CARTESIAN_POINT('',(-7.495689700139,68.745381821578,7.));
#487 = VECTOR('',#488,1.);
#488 = DIRECTION('',(-0.68231825036,0.731055268243,0.));
#489 = ORIENTED_EDGE('',*,*,#490,.T.);
#490 = EDGE_CURVE('',#483,#473,#491,.T.);
#491 = LINE('',#492,#493);
#492 = CARTESIAN_POINT('',(-14.18907923067,86.260798406754,7.));
#493 = VECTOR('',#494,1.);
#494 = DIRECTION('',(0.519946946896,0.854198555614,0.));
#495 = FACE_BOUND('',#496,.T.);
#496 = EDGE_LOOP('',(#497,#507,#515));
#497 = ORIENTED_EDGE('',*,*,#498,.T.);
#498 = EDGE_CURVE('',#499,#501,#503,.T.);
#499 = VERTEX_POINT('',#500);
#500 = CARTESIAN_POINT('',(4.,103.,7.));
#501 = VERTEX_POINT('',#502);
#502 = CARTESIAN_POINT('',(18.,80.,7.));
#503 = LINE('',#504,#505);
#504 = CARTESIAN_POINT('',(21.189079230671,74.760798406754,7.));
#505 = VECTOR('',#506,1.);
#506 = DIRECTION('',(0.519946946896,-0.854198555614,0.));
#507 = ORIENTED_EDGE('',*,*,#508,.T.);
#508 = EDGE_CURVE('',#501,#509,#511,.T.);
#509 = VERTEX_POINT('',#510);
#510 = CARTESIAN_POINT('',(4.,65.,7.));
#511 = LINE('',#512,#513);
#512 = CARTESIAN_POINT('',(0.495689700139,61.245381821578,7.));
#513 = VECTOR('',#514,1.);
#514 = DIRECTION('',(-0.68231825036,-0.731055268243,0.));
#515 = ORIENTED_EDGE('',*,*,#516,.T.);
#516 = EDGE_CURVE('',#509,#499,#517,.T.);
#517 = LINE('',#518,#519);
#518 = CARTESIAN_POINT('',(4.,78.841358875041,7.));
#519 = VECTOR('',#520,1.);
#520 = DIRECTION('',(0.,1.,0.));
#521 = PLANE('',#522);
#522 = AXIS2_PLACEMENT_3D('',#523,#524,#525);
#523 = CARTESIAN_POINT('',(0.,54.682717750082,7.));
#524 = DIRECTION('',(0.,0.,1.));
#525 = DIRECTION('',(1.,0.,0.));
#526 = ADVANCED_FACE('',(#527),#556,.F.);
#527 = FACE_BOUND('',#528,.F.);
#528 = EDGE_LOOP('',(#529,#530,#539,#546,#547,#548,#555));
#529 = ORIENTED_EDGE('',*,*,#79,.F.);
#530 = ORIENTED_EDGE('',*,*,#531,.T.);
#531 = EDGE_CURVE('',#80,#532,#534,.T.);
#532 = VERTEX_POINT('',#533);
#533 = CARTESIAN_POINT('',(-20.,115.,8.5));
#534 = CIRCLE('',#535,5.);
#535 = AXIS2_PLACEMENT_3D('',#536,#537,#538);
#536 = CARTESIAN_POINT('',(-20.,115.,3.5));
#537 = DIRECTION('',(1.,0.,-0.));
#538 = DIRECTION('',(0.,0.,1.));
#539 = ORIENTED_EDGE('',*,*,#540,.T.);
#540 = EDGE_CURVE('',#532,#335,#541,.T.);
#541 = CIRCLE('',#542,5.);
#542 = AXIS2_PLACEMENT_3D('',#543,#544,#545);
#543 = CARTESIAN_POINT('',(-20.,115.,3.5));
#544 = DIRECTION('',(1.,0.,-0.));
#545 = DIRECTION('',(0.,0.,1.));
#546 = ORIENTED_EDGE('',*,*,#334,.T.);
#547 = ORIENTED_EDGE('',*,*,#48,.F.);
#548 = ORIENTED_EDGE('',*,*,#549,.F.);
#549 = EDGE_CURVE('',#32,#40,#550,.T.);
#550 = CIRCLE('',#551,2.);
#551 = AXIS2_PLACEMENT_3D('',#552,#553,#554);
#552 = CARTESIAN_POINT('',(-20.,115.,3.5));
#553 = DIRECTION('',(1.,0.,-0.));
#554 = DIRECTION('',(0.,0.,1.));
#555 = ORIENTED_EDGE('',*,*,#31,.F.);
#556 = PLANE('',#557);
#557 = AXIS2_PLACEMENT_3D('',#558,#559,#560);
#558 = CARTESIAN_POINT('',(-20.,115.,3.5));
#559 = DIRECTION('',(1.,0.,0.));
#560 = DIRECTION('',(0.,0.,1.));
#561 = ADVANCED_FACE('',(#562),#591,.F.);
#562 = FACE_BOUND('',#563,.F.);
#563 = EDGE_LOOP('',(#564,#575,#581,#582,#583,#584));
#564 = ORIENTED_EDGE('',*,*,#565,.T.);
#565 = EDGE_CURVE('',#566,#568,#570,.T.);
#566 = VERTEX_POINT('',#567);
#567 = CARTESIAN_POINT('',(20.,115.,1.5));
#568 = VERTEX_POINT('',#569);
#569 = CARTESIAN_POINT('',(20.,115.,5.5));
#570 = ELLIPSE('',#571,2.004833478841,2.);
#571 = AXIS2_PLACEMENT_3D('',#572,#573,#574);
#572 = CARTESIAN_POINT('',(20.,115.,3.5));
#573 = DIRECTION('',(-0.997589087128,-6.939750171322E-02,0.));
#574 = DIRECTION('',(6.939750171322E-02,-0.997589087128,0.));
#575 = ORIENTED_EDGE('',*,*,#576,.F.);
#576 = EDGE_CURVE('',#40,#568,#577,.T.);
#577 = LINE('',#578,#579);
#578 = CARTESIAN_POINT('',(-21.,115.,5.5));
#579 = VECTOR('',#580,1.);
#580 = DIRECTION('',(1.,0.,0.));
#581 = ORIENTED_EDGE('',*,*,#39,.T.);
#582 = ORIENTED_EDGE('',*,*,#549,.T.);
#583 = ORIENTED_EDGE('',*,*,#576,.T.);
#584 = ORIENTED_EDGE('',*,*,#585,.F.);
#585 = EDGE_CURVE('',#566,#568,#586,.T.);
#586 = CIRCLE('',#587,2.);
#587 = AXIS2_PLACEMENT_3D('',#588,#589,#590);
#588 = CARTESIAN_POINT('',(20.,115.,3.5));
#589 = DIRECTION('',(1.,0.,-0.));
#590 = DIRECTION('',(0.,0.,1.));
#591 = CYLINDRICAL_SURFACE('',#592,2.);
#592 = AXIS2_PLACEMENT_3D('',#593,#594,#595);
#593 = CARTESIAN_POINT('',(-21.,115.,3.5));
#594 = DIRECTION('',(1.,0.,0.));
#595 = DIRECTION('',(0.,0.,1.));
#596 = ADVANCED_FACE('',(#597),#630,.T.);
#597 = FACE_BOUND('',#598,.T.);
#598 = EDGE_LOOP('',(#599,#600,#609,#616,#617,#623,#624));
#599 = ORIENTED_EDGE('',*,*,#104,.F.);
#600 = ORIENTED_EDGE('',*,*,#601,.T.);
#601 = EDGE_CURVE('',#105,#602,#604,.T.);
#602 = VERTEX_POINT('',#603);
#603 = CARTESIAN_POINT('',(20.,115.,8.5));
#604 = CIRCLE('',#605,5.);
#605 = AXIS2_PLACEMENT_3D('',#606,#607,#608);
#606 = CARTESIAN_POINT('',(20.,115.,3.5));
#607 = DIRECTION('',(1.,0.,-0.));
#608 = DIRECTION('',(0.,0.,1.));
#609 = ORIENTED_EDGE('',*,*,#610,.T.);
#610 = EDGE_CURVE('',#602,#353,#611,.T.);
#611 = CIRCLE('',#612,5.);
#612 = AXIS2_PLACEMENT_3D('',#613,#614,#615);
#613 = CARTESIAN_POINT('',(20.,115.,3.5));
#614 = DIRECTION('',(1.,0.,-0.));
#615 = DIRECTION('',(0.,0.,1.));
#616 = ORIENTED_EDGE('',*,*,#352,.T.);
#617 = ORIENTED_EDGE('',*,*,#618,.F.);
#618 = EDGE_CURVE('',#568,#345,#619,.T.);
#619 = LINE('',#620,#621);
#620 = CARTESIAN_POINT('',(20.,115.,0.));
#621 = VECTOR('',#622,1.);
#622 = DIRECTION('',(0.,0.,1.));
#623 = ORIENTED_EDGE('',*,*,#585,.F.);
#624 = ORIENTED_EDGE('',*,*,#625,.F.);
#625 = EDGE_CURVE('',#97,#566,#626,.T.);
#626 = LINE('',#627,#628);
#627 = CARTESIAN_POINT('',(20.,115.,0.));
#628 = VECTOR('',#629,1.);
#629 = DIRECTION('',(0.,0.,1.));
#630 = PLANE('',#631);
#631 = AXIS2_PLACEMENT_3D('',#632,#633,#634);
#632 = CARTESIAN_POINT('',(20.,115.,3.5));
#633 = DIRECTION('',(1.,0.,0.));
#634 = DIRECTION('',(0.,0.,1.));
#635 = ADVANCED_FACE('',(#636),#644,.F.);
#636 = FACE_BOUND('',#637,.F.);
#637 = EDGE_LOOP('',(#638,#639,#640,#641,#642,#643));
#638 = ORIENTED_EDGE('',*,*,#96,.F.);
#639 = ORIENTED_EDGE('',*,*,#311,.F.);
#640 = ORIENTED_EDGE('',*,*,#344,.T.);
#641 = ORIENTED_EDGE('',*,*,#618,.F.);
#642 = ORIENTED_EDGE('',*,*,#565,.F.);
#643 = ORIENTED_EDGE('',*,*,#625,.F.);
#644 = PLANE('',#645);
#645 = AXIS2_PLACEMENT_3D('',#646,#647,#648);
#646 = CARTESIAN_POINT('',(28.,0.,0.));
#647 = DIRECTION('',(-0.997589087128,-6.939750171322E-02,0.));
#648 = DIRECTION('',(-6.939750171322E-02,0.997589087128,0.));
#649 = ADVANCED_FACE('',(#650),#666,.T.);
#650 = FACE_BOUND('',#651,.T.);
#651 = EDGE_LOOP('',(#652,#653,#659,#660));
#652 = ORIENTED_EDGE('',*,*,#120,.T.);
#653 = ORIENTED_EDGE('',*,*,#654,.T.);
#654 = EDGE_CURVE('',#123,#371,#655,.T.);
#655 = LINE('',#656,#657);
#656 = CARTESIAN_POINT('',(-4.,12.,-1.));
#657 = VECTOR('',#658,1.);
#658 = DIRECTION('',(0.,0.,1.));
#659 = ORIENTED_EDGE('',*,*,#368,.F.);
#660 = ORIENTED_EDGE('',*,*,#661,.F.);
#661 = EDGE_CURVE('',#121,#369,#662,.T.);
#662 = LINE('',#663,#664);
#663 = CARTESIAN_POINT('',(-4.,45.,-1.));
#664 = VECTOR('',#665,1.);
#665 = DIRECTION('',(0.,0.,1.));
#666 = PLANE('',#667);
#667 = AXIS2_PLACEMENT_3D('',#668,#669,#670);
#668 = CARTESIAN_POINT('',(-4.,12.,-1.));
#669 = DIRECTION('',(-1.,0.,0.));
#670 = DIRECTION('',(0.,1.,0.));
#671 = ADVANCED_FACE('',(#672),#683,.T.);
#672 = FACE_BOUND('',#673,.T.);
#673 = EDGE_LOOP('',(#674,#675,#676,#677));
#674 = ORIENTED_EDGE('',*,*,#138,.T.);
#675 = ORIENTED_EDGE('',*,*,#661,.T.);
#676 = ORIENTED_EDGE('',*,*,#386,.F.);
#677 = ORIENTED_EDGE('',*,*,#678,.F.);
#678 = EDGE_CURVE('',#131,#379,#679,.T.);
#679 = LINE('',#680,#681);
#680 = CARTESIAN_POINT('',(-21.,12.,-1.));
#681 = VECTOR('',#682,1.);
#682 = DIRECTION('',(0.,0.,1.));
#683 = PLANE('',#684);
#684 = AXIS2_PLACEMENT_3D('',#685,#686,#687);
#685 = CARTESIAN_POINT('',(-4.,45.,-1.));
#686 = DIRECTION('',(0.888974556427,-0.457956589674,0.));
#687 = DIRECTION('',(-0.457956589674,-0.888974556427,0.));
#688 = ADVANCED_FACE('',(#689),#695,.T.);
#689 = FACE_BOUND('',#690,.T.);
#690 = EDGE_LOOP('',(#691,#692,#693,#694));
#691 = ORIENTED_EDGE('',*,*,#130,.T.);
#692 = ORIENTED_EDGE('',*,*,#678,.T.);
#693 = ORIENTED_EDGE('',*,*,#378,.F.);
#694 = ORIENTED_EDGE('',*,*,#654,.F.);
#695 = PLANE('',#696);
#696 = AXIS2_PLACEMENT_3D('',#697,#698,#699);
#697 = CARTESIAN_POINT('',(-21.,12.,-1.));
#698 = DIRECTION('',(0.,1.,0.));
#699 = DIRECTION('',(1.,0.,0.));
#700 = ADVANCED_FACE('',(#701),#717,.T.);
#701 = FACE_BOUND('',#702,.T.);
#702 = EDGE_LOOP('',(#703,#704,#710,#711));
#703 = ORIENTED_EDGE('',*,*,#146,.T.);
#704 = ORIENTED_EDGE('',*,*,#705,.T.);
#705 = EDGE_CURVE('',#149,#397,#706,.T.);
#706 = LINE('',#707,#708);
#707 = CARTESIAN_POINT('',(-7.,53.,-1.));
#708 = VECTOR('',#709,1.);
#709 = DIRECTION('',(0.,0.,1.));
#710 = ORIENTED_EDGE('',*,*,#394,.F.);
#711 = ORIENTED_EDGE('',*,*,#712,.F.);
#712 = EDGE_CURVE('',#147,#395,#713,.T.);
#713 = LINE('',#714,#715);
#714 = CARTESIAN_POINT('',(-20.,74.,-1.));
#715 = VECTOR('',#716,1.);
#716 = DIRECTION('',(0.,0.,1.));
#717 = PLANE('',#718);
#718 = AXIS2_PLACEMENT_3D('',#719,#720,#721);
#719 = CARTESIAN_POINT('',(-7.,53.,-1.));
#720 = DIRECTION('',(-0.850265146688,-0.526354614616,0.));
#721 = DIRECTION('',(-0.526354614616,0.850265146688,0.));
#722 = ADVANCED_FACE('',(#723),#734,.T.);
#723 = FACE_BOUND('',#724,.T.);
#724 = EDGE_LOOP('',(#725,#726,#727,#728));
#725 = ORIENTED_EDGE('',*,*,#164,.T.);
#726 = ORIENTED_EDGE('',*,*,#712,.T.);
#727 = ORIENTED_EDGE('',*,*,#412,.F.);
#728 = ORIENTED_EDGE('',*,*,#729,.F.);
#729 = EDGE_CURVE('',#157,#405,#730,.T.);
#730 = LINE('',#731,#732);
#731 = CARTESIAN_POINT('',(-19.,25.,-1.));
#732 = VECTOR('',#733,1.);
#733 = DIRECTION('',(0.,0.,1.));
#734 = PLANE('',#735);
#735 = AXIS2_PLACEMENT_3D('',#736,#737,#738);
#736 = CARTESIAN_POINT('',(-20.,74.,-1.));
#737 = DIRECTION('',(0.999791818463,2.040391466252E-02,0.));
#738 = DIRECTION('',(2.040391466252E-02,-0.999791818463,0.));
#739 = ADVANCED_FACE('',(#740),#746,.T.);
#740 = FACE_BOUND('',#741,.T.);
#741 = EDGE_LOOP('',(#742,#743,#744,#745));
#742 = ORIENTED_EDGE('',*,*,#156,.T.);
#743 = ORIENTED_EDGE('',*,*,#729,.T.);
#744 = ORIENTED_EDGE('',*,*,#404,.F.);
#745 = ORIENTED_EDGE('',*,*,#705,.F.);
#746 = PLANE('',#747);
#747 = AXIS2_PLACEMENT_3D('',#748,#749,#750);
#748 = CARTESIAN_POINT('',(-19.,25.,-1.));
#749 = DIRECTION('',(-0.919145030018,0.393919298579,0.));
#750 = DIRECTION('',(0.393919298579,0.919145030018,0.));
#751 = ADVANCED_FACE('',(#752),#768,.T.);
#752 = FACE_BOUND('',#753,.T.);
#753 = EDGE_LOOP('',(#754,#755,#761,#762));
#754 = ORIENTED_EDGE('',*,*,#172,.T.);
#755 = ORIENTED_EDGE('',*,*,#756,.T.);
#756 = EDGE_CURVE('',#175,#423,#757,.T.);
#757 = LINE('',#758,#759);
#758 = CARTESIAN_POINT('',(21.,12.,-1.));
#759 = VECTOR('',#760,1.);
#760 = DIRECTION('',(0.,0.,1.));
#761 = ORIENTED_EDGE('',*,*,#420,.F.);
#762 = ORIENTED_EDGE('',*,*,#763,.F.);
#763 = EDGE_CURVE('',#173,#421,#764,.T.);
#764 = LINE('',#765,#766);
#765 = CARTESIAN_POINT('',(4.,45.,-1.));
#766 = VECTOR('',#767,1.);
#767 = DIRECTION('',(0.,0.,1.));
#768 = PLANE('',#769);
#769 = AXIS2_PLACEMENT_3D('',#770,#771,#772);
#770 = CARTESIAN_POINT('',(21.,12.,-1.));
#771 = DIRECTION('',(-0.888974556427,-0.457956589674,0.));
#772 = DIRECTION('',(-0.457956589674,0.888974556427,0.));
#773 = ADVANCED_FACE('',(#774),#785,.T.);
#774 = FACE_BOUND('',#775,.T.);
#775 = EDGE_LOOP('',(#776,#777,#778,#779));
#776 = ORIENTED_EDGE('',*,*,#190,.T.);
#777 = ORIENTED_EDGE('',*,*,#763,.T.);
#778 = ORIENTED_EDGE('',*,*,#438,.F.);
#779 = ORIENTED_EDGE('',*,*,#780,.F.);
#780 = EDGE_CURVE('',#183,#431,#781,.T.);
#781 = LINE('',#782,#783);
#782 = CARTESIAN_POINT('',(4.,12.,-1.));
#783 = VECTOR('',#784,1.);
#784 = DIRECTION('',(0.,0.,1.));
#785 = PLANE('',#786);
#786 = AXIS2_PLACEMENT_3D('',#787,#788,#789);
#787 = CARTESIAN_POINT('',(4.,45.,-1.));
#788 = DIRECTION('',(1.,0.,0.));
#789 = DIRECTION('',(0.,-1.,0.));
#790 = ADVANCED_FACE('',(#791),#797,.T.);
#791 = FACE_BOUND('',#792,.T.);
#792 = EDGE_LOOP('',(#793,#794,#795,#796));
#793 = ORIENTED_EDGE('',*,*,#182,.T.);
#794 = ORIENTED_EDGE('',*,*,#780,.T.);
#795 = ORIENTED_EDGE('',*,*,#430,.F.);
#796 = ORIENTED_EDGE('',*,*,#756,.F.);
#797 = PLANE('',#798);
#798 = AXIS2_PLACEMENT_3D('',#799,#800,#801);
#799 = CARTESIAN_POINT('',(4.,12.,-1.));
#800 = DIRECTION('',(0.,1.,0.));
#801 = DIRECTION('',(1.,0.,0.));
#802 = ADVANCED_FACE('',(#803),#819,.T.);
#803 = FACE_BOUND('',#804,.T.);
#804 = EDGE_LOOP('',(#805,#806,#812,#813));
#805 = ORIENTED_EDGE('',*,*,#198,.T.);
#806 = ORIENTED_EDGE('',*,*,#807,.T.);
#807 = EDGE_CURVE('',#201,#449,#808,.T.);
#808 = LINE('',#809,#810);
#809 = CARTESIAN_POINT('',(20.,74.,-1.));
#810 = VECTOR('',#811,1.);
#811 = DIRECTION('',(0.,0.,1.));
#812 = ORIENTED_EDGE('',*,*,#446,.F.);
#813 = ORIENTED_EDGE('',*,*,#814,.F.);
#814 = EDGE_CURVE('',#199,#447,#815,.T.);
#815 = LINE('',#816,#817);
#816 = CARTESIAN_POINT('',(7.,53.,-1.));
#817 = VECTOR('',#818,1.);
#818 = DIRECTION('',(0.,0.,1.));
#819 = PLANE('',#820);
#820 = AXIS2_PLACEMENT_3D('',#821,#822,#823);
#821 = CARTESIAN_POINT('',(20.,74.,-1.));
#822 = DIRECTION('',(0.850265146688,-0.526354614616,0.));
#823 = DIRECTION('',(-0.526354614616,-0.850265146688,0.));
#824 = ADVANCED_FACE('',(#825),#836,.T.);
#825 = FACE_BOUND('',#826,.T.);
#826 = EDGE_LOOP('',(#827,#828,#829,#830));
#827 = ORIENTED_EDGE('',*,*,#216,.T.);
#828 = ORIENTED_EDGE('',*,*,#814,.T.);
#829 = ORIENTED_EDGE('',*,*,#464,.F.);
#830 = ORIENTED_EDGE('',*,*,#831,.F.);
#831 = EDGE_CURVE('',#209,#457,#832,.T.);
#832 = LINE('',#833,#834);
#833 = CARTESIAN_POINT('',(19.,25.,-1.));
#834 = VECTOR('',#835,1.);
#835 = DIRECTION('',(0.,0.,1.));
#836 = PLANE('',#837);
#837 = AXIS2_PLACEMENT_3D('',#838,#839,#840);
#838 = CARTESIAN_POINT('',(7.,53.,-1.));
#839 = DIRECTION('',(0.919145030018,0.393919298579,0.));
#840 = DIRECTION('',(0.393919298579,-0.919145030018,0.));
#841 = ADVANCED_FACE('',(#842),#848,.T.);
#842 = FACE_BOUND('',#843,.T.);
#843 = EDGE_LOOP('',(#844,#845,#846,#847));
#844 = ORIENTED_EDGE('',*,*,#208,.T.);
#845 = ORIENTED_EDGE('',*,*,#831,.T.);
#846 = ORIENTED_EDGE('',*,*,#456,.F.);
#847 = ORIENTED_EDGE('',*,*,#807,.F.);
#848 = PLANE('',#849);
#849 = AXIS2_PLACEMENT_3D('',#850,#851,#852);
#850 = CARTESIAN_POINT('',(19.,25.,-1.));
#851 = DIRECTION('',(-0.999791818463,2.040391466252E-02,0.));
#852 = DIRECTION('',(2.040391466252E-02,0.999791818463,0.));
#853 = ADVANCED_FACE('',(#854),#870,.T.);
#854 = FACE_BOUND('',#855,.T.);
#855 = EDGE_LOOP('',(#856,#857,#863,#864));
#856 = ORIENTED_EDGE('',*,*,#224,.T.);
#857 = ORIENTED_EDGE('',*,*,#858,.T.);
#858 = EDGE_CURVE('',#227,#475,#859,.T.);
#859 = LINE('',#860,#861);
#860 = CARTESIAN_POINT('',(-4.,65.,-1.));
#861 = VECTOR('',#862,1.);
#862 = DIRECTION('',(0.,0.,1.));
#863 = ORIENTED_EDGE('',*,*,#472,.F.);
#864 = ORIENTED_EDGE('',*,*,#865,.F.);
#865 = EDGE_CURVE('',#225,#473,#866,.T.);
#866 = LINE('',#867,#868);
#867 = CARTESIAN_POINT('',(-4.,103.,-1.));
#868 = VECTOR('',#869,1.);
#869 = DIRECTION('',(0.,0.,1.));
#870 = PLANE('',#871);
#871 = AXIS2_PLACEMENT_3D('',#872,#873,#874);
#872 = CARTESIAN_POINT('',(-4.,65.,-1.));
#873 = DIRECTION('',(-1.,0.,0.));
#874 = DIRECTION('',(0.,1.,0.));
#875 = ADVANCED_FACE('',(#876),#887,.T.);
#876 = FACE_BOUND('',#877,.T.);
#877 = EDGE_LOOP('',(#878,#879,#880,#881));
#878 = ORIENTED_EDGE('',*,*,#242,.T.);
#879 = ORIENTED_EDGE('',*,*,#865,.T.);
#880 = ORIENTED_EDGE('',*,*,#490,.F.);
#881 = ORIENTED_EDGE('',*,*,#882,.F.);
#882 = EDGE_CURVE('',#235,#483,#883,.T.);
#883 = LINE('',#884,#885);
#884 = CARTESIAN_POINT('',(-18.,80.,-1.));
#885 = VECTOR('',#886,1.);
#886 = DIRECTION('',(0.,0.,1.));
#887 = PLANE('',#888);
#888 = AXIS2_PLACEMENT_3D('',#889,#890,#891);
#889 = CARTESIAN_POINT('',(-4.,103.,-1.));
#890 = DIRECTION('',(0.854198555614,-0.519946946896,0.));
#891 = DIRECTION('',(-0.519946946896,-0.854198555614,0.));
#892 = ADVANCED_FACE('',(#893),#899,.T.);
#893 = FACE_BOUND('',#894,.T.);
#894 = EDGE_LOOP('',(#895,#896,#897,#898));
#895 = ORIENTED_EDGE('',*,*,#234,.T.);
#896 = ORIENTED_EDGE('',*,*,#882,.T.);
#897 = ORIENTED_EDGE('',*,*,#482,.F.);
#898 = ORIENTED_EDGE('',*,*,#858,.F.);
#899 = PLANE('',#900);
#900 = AXIS2_PLACEMENT_3D('',#901,#902,#903);
#901 = CARTESIAN_POINT('',(-18.,80.,-1.));
#902 = DIRECTION('',(0.731055268243,0.68231825036,0.));
#903 = DIRECTION('',(0.68231825036,-0.731055268243,0.));
#904 = ADVANCED_FACE('',(#905),#921,.T.);
#905 = FACE_BOUND('',#906,.T.);
#906 = EDGE_LOOP('',(#907,#908,#914,#915));
#907 = ORIENTED_EDGE('',*,*,#250,.T.);
#908 = ORIENTED_EDGE('',*,*,#909,.T.);
#909 = EDGE_CURVE('',#253,#501,#910,.T.);
#910 = LINE('',#911,#912);
#911 = CARTESIAN_POINT('',(18.,80.,-1.));
#912 = VECTOR('',#913,1.);
#913 = DIRECTION('',(0.,0.,1.));
#914 = ORIENTED_EDGE('',*,*,#498,.F.);
#915 = ORIENTED_EDGE('',*,*,#916,.F.);
#916 = EDGE_CURVE('',#251,#499,#917,.T.);
#917 = LINE('',#918,#919);
#918 = CARTESIAN_POINT('',(4.,103.,-1.));
#919 = VECTOR('',#920,1.);
#920 = DIRECTION('',(0.,0.,1.));
#921 = PLANE('',#922);
#922 = AXIS2_PLACEMENT_3D('',#923,#924,#925);
#923 = CARTESIAN_POINT('',(18.,80.,-1.));
#924 = DIRECTION('',(-0.854198555614,-0.519946946896,0.));
#925 = DIRECTION('',(-0.519946946896,0.854198555614,0.));
#926 = ADVANCED_FACE('',(#927),#938,.T.);
#927 = FACE_BOUND('',#928,.T.);
#928 = EDGE_LOOP('',(#929,#930,#931,#932));
#929 = ORIENTED_EDGE('',*,*,#268,.T.);
#930 = ORIENTED_EDGE('',*,*,#916,.T.);
#931 = ORIENTED_EDGE('',*,*,#516,.F.);
#932 = ORIENTED_EDGE('',*,*,#933,.F.);
#933 = EDGE_CURVE('',#261,#509,#934,.T.);
#934 = LINE('',#935,#936);
#935 = CARTESIAN_POINT('',(4.,65.,-1.));
#936 = VECTOR('',#937,1.);
#937 = DIRECTION('',(0.,0.,1.));
#938 = PLANE('',#939);
#939 = AXIS2_PLACEMENT_3D('',#940,#941,#942);
#940 = CARTESIAN_POINT('',(4.,103.,-1.));
#941 = DIRECTION('',(1.,0.,0.));
#942 = DIRECTION('',(0.,-1.,0.));
#943 = ADVANCED_FACE('',(#944),#950,.T.);
#944 = FACE_BOUND('',#945,.T.);
#945 = EDGE_LOOP('',(#946,#947,#948,#949));
#946 = ORIENTED_EDGE('',*,*,#260,.T.);
#947 = ORIENTED_EDGE('',*,*,#933,.T.);
#948 = ORIENTED_EDGE('',*,*,#508,.F.);
#949 = ORIENTED_EDGE('',*,*,#909,.F.);
#950 = PLANE('',#951);
#951 = AXIS2_PLACEMENT_3D('',#952,#953,#954);
#952 = CARTESIAN_POINT('',(4.,65.,-1.));
#953 = DIRECTION('',(-0.731055268243,0.68231825036,0.));
#954 = DIRECTION('',(0.68231825036,0.731055268243,0.));
#955 = ADVANCED_FACE('',(#956,#959),#979,.F.);
#956 = FACE_BOUND('',#957,.F.);
#957 = EDGE_LOOP('',(#958));
#958 = ORIENTED_EDGE('',*,*,#300,.T.);
#959 = FACE_BOUND('',#960,.F.);
#960 = EDGE_LOOP('',(#961,#972));
#961 = ORIENTED_EDGE('',*,*,#962,.F.);
#962 = EDGE_CURVE('',#963,#965,#967,.T.);
#963 = VERTEX_POINT('',#964);
#964 = CARTESIAN_POINT('',(-28.,0.,1.5));
#965 = VERTEX_POINT('',#966);
#966 = CARTESIAN_POINT('',(-28.,2.449293598295E-16,5.5));
#967 = CIRCLE('',#968,2.);
#968 = AXIS2_PLACEMENT_3D('',#969,#970,#971);
#969 = CARTESIAN_POINT('',(-28.,0.,3.5));
#970 = DIRECTION('',(1.,0.,-0.));
#971 = DIRECTION('',(0.,0.,1.));
#972 = ORIENTED_EDGE('',*,*,#973,.F.);
#973 = EDGE_CURVE('',#965,#963,#974,.T.);
#974 = CIRCLE('',#975,2.);
#975 = AXIS2_PLACEMENT_3D('',#976,#977,#978);
#976 = CARTESIAN_POINT('',(-28.,0.,3.5));
#977 = DIRECTION('',(1.,0.,-0.));
#978 = DIRECTION('',(0.,0.,1.));
#979 = PLANE('',#980);
#980 = AXIS2_PLACEMENT_3D('',#981,#982,#983);
#981 = CARTESIAN_POINT('',(-28.,0.,3.5));
#982 = DIRECTION('',(1.,0.,0.));
#983 = DIRECTION('',(0.,0.,1.));
#984 = ADVANCED_FACE('',(#985,#988),#1008,.T.);
#985 = FACE_BOUND('',#986,.T.);
#986 = EDGE_LOOP('',(#987));
#987 = ORIENTED_EDGE('',*,*,#292,.T.);
#988 = FACE_BOUND('',#989,.T.);
#989 = EDGE_LOOP('',(#990,#1001));
#990 = ORIENTED_EDGE('',*,*,#991,.F.);
#991 = EDGE_CURVE('',#992,#994,#996,.T.);
#992 = VERTEX_POINT('',#993);
#993 = CARTESIAN_POINT('',(28.,0.,1.5));
#994 = VERTEX_POINT('',#995);
#995 = CARTESIAN_POINT('',(28.,2.449293598295E-16,5.5));
#996 = CIRCLE('',#997,2.);
#997 = AXIS2_PLACEMENT_3D('',#998,#999,#1000);
#998 = CARTESIAN_POINT('',(28.,0.,3.5));
#999 = DIRECTION('',(1.,0.,-0.));
#1000 = DIRECTION('',(0.,0.,1.));
#1001 = ORIENTED_EDGE('',*,*,#1002,.F.);
#1002 = EDGE_CURVE('',#994,#992,#1003,.T.);
#1003 = CIRCLE('',#1004,2.);
#1004 = AXIS2_PLACEMENT_3D('',#1005,#1006,#1007);
#1005 = CARTESIAN_POINT('',(28.,0.,3.5));
#1006 = DIRECTION('',(1.,0.,-0.));
#1007 = DIRECTION('',(0.,0.,1.));
#1008 = PLANE('',#1009);
#1009 = AXIS2_PLACEMENT_3D('',#1010,#1011,#1012);
#1010 = CARTESIAN_POINT('',(28.,0.,3.5));
#1011 = DIRECTION('',(1.,0.,0.));
#1012 = DIRECTION('',(0.,0.,1.));
#1013 = ADVANCED_FACE('',(#1014),#1027,.F.);
#1014 = FACE_BOUND('',#1015,.F.);
#1015 = EDGE_LOOP('',(#1016,#1017,#1023,#1024,#1025,#1026));
#1016 = ORIENTED_EDGE('',*,*,#1002,.F.);
#1017 = ORIENTED_EDGE('',*,*,#1018,.F.);
#1018 = EDGE_CURVE('',#965,#994,#1019,.T.);
#1019 = LINE('',#1020,#1021);
#1020 = CARTESIAN_POINT('',(-29.,4.898587196589E-16,5.5));
#1021 = VECTOR('',#1022,1.);
#1022 = DIRECTION('',(1.,0.,0.));
#1023 = ORIENTED_EDGE('',*,*,#973,.T.);
#1024 = ORIENTED_EDGE('',*,*,#962,.T.);
#1025 = ORIENTED_EDGE('',*,*,#1018,.T.);
#1026 = ORIENTED_EDGE('',*,*,#991,.F.);
#1027 = CYLINDRICAL_SURFACE('',#1028,2.);
#1028 = AXIS2_PLACEMENT_3D('',#1029,#1030,#1031);
#1029 = CARTESIAN_POINT('',(-29.,0.,3.5));
#1030 = DIRECTION('',(1.,0.,0.));
#1031 = DIRECTION('',(0.,0.,1.));
#1032 = ADVANCED_FACE('',(#1033),#1041,.T.);
#1033 = FACE_BOUND('',#1034,.T.);
#1034 = EDGE_LOOP('',(#1035,#1036,#1037,#1038,#1039,#1040));
#1035 = ORIENTED_EDGE('',*,*,#540,.T.);
#1036 = ORIENTED_EDGE('',*,*,#360,.T.);
#1037 = ORIENTED_EDGE('',*,*,#610,.F.);
#1038 = ORIENTED_EDGE('',*,*,#601,.F.);
#1039 = ORIENTED_EDGE('',*,*,#112,.F.);
#1040 = ORIENTED_EDGE('',*,*,#531,.T.);
#1041 = CYLINDRICAL_SURFACE('',#1042,5.);
#1042 = AXIS2_PLACEMENT_3D('',#1043,#1044,#1045);
#1043 = CARTESIAN_POINT('',(-20.,115.,3.5));
#1044 = DIRECTION('',(1.,0.,0.));
#1045 = DIRECTION('',(0.,0.,1.));
#1046 = ( GEOMETRIC_REPRESENTATION_CONTEXT(3) 
GLOBAL_UNCERTAINTY_ASSIGNED_CONTEXT((#1050)) 
GLOBAL_UNIT_ASSIGNED_CONTEXT((#1047,#1048,#1049)) REPRESENTATION_CONTEXT
('Context #1','3D Context with UNIT and UNCERTAINTY') );
#1047 = ( LENGTH_UNIT() NAMED_UNIT(*) SI_UNIT(.MILLI.,.METRE.) );
#1048 = ( NAMED_UNIT(*) PLANE_ANGLE_UNIT() SI_UNIT($,.RADIAN.) );
#1049 = ( NAMED_UNIT(*) SI_UNIT($,.STERADIAN.) SOLID_ANGLE_UNIT() );
#1050 = UNCERTAINTY_MEASURE_WITH_UNIT(LENGTH_MEASURE(1.E-07),#1047,
  'distance_accuracy_value','confusion accuracy');
#1051 = PRODUCT_RELATED_PRODUCT_CATEGORY('part',$,(#7));
ENDSEC;
END-ISO-10303-21;
