ISO-10303-21;
HEADER;
FILE_DESCRIPTION(('FreeCAD Model'),'2;1');
FILE_NAME('Open CASCADE Shape Model','2026-09-13T17:49:09',('FreeCAD'),(
    'FreeCAD'),'Open CASCADE STEP processor 7.8','FreeCAD','Unknown');
FILE_SCHEMA(('AUTOMOTIVE_DESIGN { 1 0 10303 214 1 1 1 1 }'));
ENDSEC;
DATA;
#1 = APPLICATION_PROTOCOL_DEFINITION('international standard',
  'automotive_design',2000,#2);
#2 = APPLICATION_CONTEXT(
  'core data for automotive mechanical design processes');
#3 = SHAPE_DEFINITION_REPRESENTATION(#4,#10);
#4 = PRODUCT_DEFINITION_SHAPE('','',#5);
#5 = PRODUCT_DEFINITION('design','',#6,#9);
#6 = PRODUCT_DEFINITION_FORMATION('','',#7);
#7 = PRODUCT('Open CASCADE STEP translator 7.8 36',
  'Open CASCADE STEP translator 7.8 36','',(#8));
#8 = PRODUCT_CONTEXT('',#2,'mechanical');
#9 = PRODUCT_DEFINITION_CONTEXT('part definition',#2,'design');
#10 = ADVANCED_BREP_SHAPE_REPRESENTATION('',(#11,#15),#144);
#11 = AXIS2_PLACEMENT_3D('',#12,#13,#14);
#12 = CARTESIAN_POINT('',(0.,0.,0.));
#13 = DIRECTION('',(0.,0.,1.));
#14 = DIRECTION('',(1.,0.,-0.));
#15 = MANIFOLD_SOLID_BREP('',#16);
#16 = CLOSED_SHELL('',(#17,#68,#83,#116,#125,#135));
#17 = ADVANCED_FACE('',(#18),#63,.T.);
#18 = FACE_BOUND('',#19,.T.);
#19 = EDGE_LOOP('',(#20,#31,#40,#48,#55,#56));
#20 = ORIENTED_EDGE('',*,*,#21,.F.);
#21 = EDGE_CURVE('',#22,#24,#26,.T.);
#22 = VERTEX_POINT('',#23);
#23 = CARTESIAN_POINT('',(-140.,-4.5,127.));
#24 = VERTEX_POINT('',#25);
#25 = CARTESIAN_POINT('',(-140.,4.5,127.));
#26 = CIRCLE('',#27,4.5);
#27 = AXIS2_PLACEMENT_3D('',#28,#29,#30);
#28 = CARTESIAN_POINT('',(-140.,0.,127.));
#29 = DIRECTION('',(-0.978549784987,0.,0.20601048105));
#30 = DIRECTION('',(-0.20601048105,0.,-0.978549784987));
#31 = ORIENTED_EDGE('',*,*,#32,.F.);
#32 = EDGE_CURVE('',#33,#22,#35,.T.);
#33 = VERTEX_POINT('',#34);
#34 = CARTESIAN_POINT('',(-139.5937825063,1.102182119233E-15,
    122.31583867105));
#35 = ELLIPSE('',#36,4.701742231108,4.5);
#36 = AXIS2_PLACEMENT_3D('',#37,#38,#39);
#37 = CARTESIAN_POINT('',(-140.,0.,127.));
#38 = DIRECTION('',(-0.996260768605,0.,-8.639722760565E-02));
#39 = DIRECTION('',(-8.639722760565E-02,0.,0.996260768605));
#40 = ORIENTED_EDGE('',*,*,#41,.F.);
#41 = EDGE_CURVE('',#42,#33,#44,.T.);
#42 = VERTEX_POINT('',#43);
#43 = CARTESIAN_POINT('',(-45.92704716472,1.102182119233E-15,
    102.59652596756));
#44 = LINE('',#45,#46);
#45 = CARTESIAN_POINT('',(-45.92704716472,1.102182119233E-15,
    102.59652596756));
#46 = VECTOR('',#47,1.);
#47 = DIRECTION('',(-0.978549784987,1.322957352226E-33,0.20601048105));
#48 = ORIENTED_EDGE('',*,*,#49,.T.);
#49 = EDGE_CURVE('',#42,#42,#50,.T.);
#50 = CIRCLE('',#51,4.5);
#51 = AXIS2_PLACEMENT_3D('',#52,#53,#54);
#52 = CARTESIAN_POINT('',(-45.,0.,107.));
#53 = DIRECTION('',(-0.978549784987,0.,0.20601048105));
#54 = DIRECTION('',(-0.20601048105,0.,-0.978549784987));
#55 = ORIENTED_EDGE('',*,*,#41,.T.);
#56 = ORIENTED_EDGE('',*,*,#57,.F.);
#57 = EDGE_CURVE('',#24,#33,#58,.T.);
#58 = ELLIPSE('',#59,4.701742231108,4.5);
#59 = AXIS2_PLACEMENT_3D('',#60,#61,#62);
#60 = CARTESIAN_POINT('',(-140.,0.,127.));
#61 = DIRECTION('',(-0.996260768605,0.,-8.639722760565E-02));
#62 = DIRECTION('',(-8.639722760565E-02,0.,0.996260768605));
#63 = CYLINDRICAL_SURFACE('',#64,4.5);
#64 = AXIS2_PLACEMENT_3D('',#65,#66,#67);
#65 = CARTESIAN_POINT('',(-45.,0.,107.));
#66 = DIRECTION('',(-0.978549784987,0.,0.20601048105));
#67 = DIRECTION('',(-0.20601048105,0.,-0.978549784987));
#68 = ADVANCED_FACE('',(#69),#78,.T.);
#69 = FACE_BOUND('',#70,.T.);
#70 = EDGE_LOOP('',(#71,#77));
#71 = ORIENTED_EDGE('',*,*,#72,.T.);
#72 = EDGE_CURVE('',#24,#22,#73,.T.);
#73 = LINE('',#74,#75);
#74 = CARTESIAN_POINT('',(-140.,0.,127.));
#75 = VECTOR('',#76,1.);
#76 = DIRECTION('',(0.,-1.,0.));
#77 = ORIENTED_EDGE('',*,*,#21,.T.);
#78 = PLANE('',#79);
#79 = AXIS2_PLACEMENT_3D('',#80,#81,#82);
#80 = CARTESIAN_POINT('',(-140.,0.,127.));
#81 = DIRECTION('',(-0.978549784987,0.,0.20601048105));
#82 = DIRECTION('',(-0.20601048105,0.,-0.978549784987));
#83 = ADVANCED_FACE('',(#84),#111,.T.);
#84 = FACE_BOUND('',#85,.T.);
#85 = EDGE_LOOP('',(#86,#94,#101,#102,#103,#110));
#86 = ORIENTED_EDGE('',*,*,#87,.T.);
#87 = EDGE_CURVE('',#33,#88,#90,.T.);
#88 = VERTEX_POINT('',#89);
#89 = CARTESIAN_POINT('',(-168.3287419564,1.102182119233E-15,
    110.82185489101));
#90 = LINE('',#91,#92);
#91 = CARTESIAN_POINT('',(-138.3287419564,1.102182119233E-15,
    122.82185489101));
#92 = VECTOR('',#93,1.);
#93 = DIRECTION('',(-0.928476690885,7.43574129176E-33,-0.371390676354));
#94 = ORIENTED_EDGE('',*,*,#95,.F.);
#95 = EDGE_CURVE('',#88,#88,#96,.T.);
#96 = CIRCLE('',#97,4.5);
#97 = AXIS2_PLACEMENT_3D('',#98,#99,#100);
#98 = CARTESIAN_POINT('',(-170.,0.,115.));
#99 = DIRECTION('',(-0.928476690885,-0.,-0.371390676354));
#100 = DIRECTION('',(0.371390676354,0.,-0.928476690885));
#101 = ORIENTED_EDGE('',*,*,#87,.F.);
#102 = ORIENTED_EDGE('',*,*,#32,.T.);
#103 = ORIENTED_EDGE('',*,*,#104,.T.);
#104 = EDGE_CURVE('',#22,#24,#105,.T.);
#105 = CIRCLE('',#106,4.5);
#106 = AXIS2_PLACEMENT_3D('',#107,#108,#109);
#107 = CARTESIAN_POINT('',(-140.,0.,127.));
#108 = DIRECTION('',(-0.928476690885,-0.,-0.371390676354));
#109 = DIRECTION('',(0.371390676354,0.,-0.928476690885));
#110 = ORIENTED_EDGE('',*,*,#57,.T.);
#111 = CYLINDRICAL_SURFACE('',#112,4.5);
#112 = AXIS2_PLACEMENT_3D('',#113,#114,#115);
#113 = CARTESIAN_POINT('',(-140.,0.,127.));
#114 = DIRECTION('',(-0.928476690885,0.,-0.371390676354));
#115 = DIRECTION('',(0.371390676354,0.,-0.928476690885));
#116 = ADVANCED_FACE('',(#117),#120,.F.);
#117 = FACE_BOUND('',#118,.T.);
#118 = EDGE_LOOP('',(#119));
#119 = ORIENTED_EDGE('',*,*,#49,.F.);
#120 = PLANE('',#121);
#121 = AXIS2_PLACEMENT_3D('',#122,#123,#124);
#122 = CARTESIAN_POINT('',(-45.,0.,107.));
#123 = DIRECTION('',(-0.978549784987,0.,0.20601048105));
#124 = DIRECTION('',(-0.20601048105,0.,-0.978549784987));
#125 = ADVANCED_FACE('',(#126),#130,.F.);
#126 = FACE_BOUND('',#127,.F.);
#127 = EDGE_LOOP('',(#128,#129));
#128 = ORIENTED_EDGE('',*,*,#72,.T.);
#129 = ORIENTED_EDGE('',*,*,#104,.T.);
#130 = PLANE('',#131);
#131 = AXIS2_PLACEMENT_3D('',#132,#133,#134);
#132 = CARTESIAN_POINT('',(-140.,0.,127.));
#133 = DIRECTION('',(-0.928476690885,0.,-0.371390676354));
#134 = DIRECTION('',(0.371390676354,0.,-0.928476690885));
#135 = ADVANCED_FACE('',(#136),#139,.T.);
#136 = FACE_BOUND('',#137,.T.);
#137 = EDGE_LOOP('',(#138));
#138 = ORIENTED_EDGE('',*,*,#95,.T.);
#139 = PLANE('',#140);
#140 = AXIS2_PLACEMENT_3D('',#141,#142,#143);
#141 = CARTESIAN_POINT('',(-170.,0.,115.));
#142 = DIRECTION('',(-0.928476690885,0.,-0.371390676354));
#143 = DIRECTION('',(0.371390676354,0.,-0.928476690885));
#144 = ( GEOMETRIC_REPRESENTATION_CONTEXT(3) 
GLOBAL_UNCERTAINTY_ASSIGNED_CONTEXT((#148)) GLOBAL_UNIT_ASSIGNED_CONTEXT
((#145,#146,#147)) REPRESENTATION_CONTEXT('Context #1',
  '3D Context with UNIT and UNCERTAINTY') );
#145 = ( LENGTH_UNIT() NAMED_UNIT(*) SI_UNIT(.MILLI.,.METRE.) );
#146 = ( NAMED_UNIT(*) PLANE_ANGLE_UNIT() SI_UNIT($,.RADIAN.) );
#147 = ( NAMED_UNIT(*) SI_UNIT($,.STERADIAN.) SOLID_ANGLE_UNIT() );
#148 = UNCERTAINTY_MEASURE_WITH_UNIT(LENGTH_MEASURE(5.E-07),#145,
  'distance_accuracy_value','confusion accuracy');
#149 = PRODUCT_RELATED_PRODUCT_CATEGORY('part',$,(#7));
ENDSEC;
END-ISO-10303-21;
