ISO-10303-21;
HEADER;
FILE_DESCRIPTION(('FreeCAD Model'),'2;1');
FILE_NAME('Open CASCADE Shape Model','2026-09-13T17:49:09',('FreeCAD'),(
    'FreeCAD'),'Open CASCADE STEP processor 7.8','FreeCAD','Unknown');
FILE_SCHEMA(('AUTOMOTIVE_DESIGN { 1 0 10303 214 1 1 1 1 }'));
ENDSEC;
DATA;
#1 = APPLICATION_PROTOCOL_DEFINITION('international standard',
  'automotive_design',2000,#2);
#2 = APPLICATION_CONTEXT(
  'core data for automotive mechanical design processes');
#3 = SHAPE_DEFINITION_REPRESENTATION(#4,#10);
#4 = PRODUCT_DEFINITION_SHAPE('','',#5);
#5 = PRODUCT_DEFINITION('design','',#6,#9);
#6 = PRODUCT_DEFINITION_FORMATION('','',#7);
#7 = PRODUCT('Open CASCADE STEP translator 7.8 38',
  'Open CASCADE STEP translator 7.8 38','',(#8));
#8 = PRODUCT_CONTEXT('',#2,'mechanical');
#9 = PRODUCT_DEFINITION_CONTEXT('part definition',#2,'design');
#10 = ADVANCED_BREP_SHAPE_REPRESENTATION('',(#11,#15),#154);
#11 = AXIS2_PLACEMENT_3D('',#12,#13,#14);
#12 = CARTESIAN_POINT('',(0.,0.,0.));
#13 = DIRECTION('',(0.,0.,1.));
#14 = DIRECTION('',(1.,0.,-0.));
#15 = MANIFOLD_SOLID_BREP('',#16);
#16 = CLOSED_SHELL('',(#17,#68,#77,#93,#134,#145));
#17 = ADVANCED_FACE('',(#18),#63,.T.);
#18 = FACE_BOUND('',#19,.T.);
#19 = EDGE_LOOP('',(#20,#30,#39,#48,#55,#56));
#20 = ORIENTED_EDGE('',*,*,#21,.T.);
#21 = EDGE_CURVE('',#22,#24,#26,.T.);
#22 = VERTEX_POINT('',#23);
#23 = CARTESIAN_POINT('',(44.072952835276,1.102182119233E-15,
    111.40347403244));
#24 = VERTEX_POINT('',#25);
#25 = CARTESIAN_POINT('',(139.07295283527,1.102182119233E-15,
    131.40347403244));
#26 = LINE('',#27,#28);
#27 = CARTESIAN_POINT('',(44.072952835276,1.102182119233E-15,
    111.40347403244));
#28 = VECTOR('',#29,1.);
#29 = DIRECTION('',(0.978549784987,-1.322957352226E-33,0.20601048105));
#30 = ORIENTED_EDGE('',*,*,#31,.F.);
#31 = EDGE_CURVE('',#32,#24,#34,.T.);
#32 = VERTEX_POINT('',#33);
#33 = CARTESIAN_POINT('',(140.,4.5,127.));
#34 = CIRCLE('',#35,4.5);
#35 = AXIS2_PLACEMENT_3D('',#36,#37,#38);
#36 = CARTESIAN_POINT('',(140.,0.,127.));
#37 = DIRECTION('',(0.978549784987,0.,0.20601048105));
#38 = DIRECTION('',(-0.20601048105,0.,0.978549784987));
#39 = ORIENTED_EDGE('',*,*,#40,.F.);
#40 = EDGE_CURVE('',#41,#32,#43,.T.);
#41 = VERTEX_POINT('',#42);
#42 = CARTESIAN_POINT('',(140.,-4.5,127.));
#43 = ELLIPSE('',#44,4.701742231108,4.5);
#44 = AXIS2_PLACEMENT_3D('',#45,#46,#47);
#45 = CARTESIAN_POINT('',(140.,0.,127.));
#46 = DIRECTION('',(0.996260768605,0.,-8.639722760565E-02));
#47 = DIRECTION('',(8.639722760565E-02,0.,0.996260768605));
#48 = ORIENTED_EDGE('',*,*,#49,.F.);
#49 = EDGE_CURVE('',#24,#41,#50,.T.);
#50 = CIRCLE('',#51,4.5);
#51 = AXIS2_PLACEMENT_3D('',#52,#53,#54);
#52 = CARTESIAN_POINT('',(140.,0.,127.));
#53 = DIRECTION('',(0.978549784987,0.,0.20601048105));
#54 = DIRECTION('',(-0.20601048105,0.,0.978549784987));
#55 = ORIENTED_EDGE('',*,*,#21,.F.);
#56 = ORIENTED_EDGE('',*,*,#57,.T.);
#57 = EDGE_CURVE('',#22,#22,#58,.T.);
#58 = CIRCLE('',#59,4.5);
#59 = AXIS2_PLACEMENT_3D('',#60,#61,#62);
#60 = CARTESIAN_POINT('',(45.,0.,107.));
#61 = DIRECTION('',(0.978549784987,0.,0.20601048105));
#62 = DIRECTION('',(-0.20601048105,0.,0.978549784987));
#63 = CYLINDRICAL_SURFACE('',#64,4.5);
#64 = AXIS2_PLACEMENT_3D('',#65,#66,#67);
#65 = CARTESIAN_POINT('',(45.,0.,107.));
#66 = DIRECTION('',(0.978549784987,0.,0.20601048105));
#67 = DIRECTION('',(-0.20601048105,0.,0.978549784987));
#68 = ADVANCED_FACE('',(#69),#72,.F.);
#69 = FACE_BOUND('',#70,.T.);
#70 = EDGE_LOOP('',(#71));
#71 = ORIENTED_EDGE('',*,*,#57,.F.);
#72 = PLANE('',#73);
#73 = AXIS2_PLACEMENT_3D('',#74,#75,#76);
#74 = CARTESIAN_POINT('',(45.,0.,107.));
#75 = DIRECTION('',(0.978549784987,0.,0.20601048105));
#76 = DIRECTION('',(-0.20601048105,0.,0.978549784987));
#77 = ADVANCED_FACE('',(#78),#88,.T.);
#78 = FACE_BOUND('',#79,.T.);
#79 = EDGE_LOOP('',(#80,#81,#82));
#80 = ORIENTED_EDGE('',*,*,#31,.T.);
#81 = ORIENTED_EDGE('',*,*,#49,.T.);
#82 = ORIENTED_EDGE('',*,*,#83,.T.);
#83 = EDGE_CURVE('',#41,#32,#84,.T.);
#84 = LINE('',#85,#86);
#85 = CARTESIAN_POINT('',(140.,0.,127.));
#86 = VECTOR('',#87,1.);
#87 = DIRECTION('',(0.,1.,0.));
#88 = PLANE('',#89);
#89 = AXIS2_PLACEMENT_3D('',#90,#91,#92);
#90 = CARTESIAN_POINT('',(140.,0.,127.));
#91 = DIRECTION('',(0.978549784987,0.,0.20601048105));
#92 = DIRECTION('',(-0.20601048105,0.,0.978549784987));
#93 = ADVANCED_FACE('',(#94),#129,.T.);
#94 = FACE_BOUND('',#95,.T.);
#95 = EDGE_LOOP('',(#96,#106,#113,#114,#121,#122));
#96 = ORIENTED_EDGE('',*,*,#97,.T.);
#97 = EDGE_CURVE('',#98,#100,#102,.T.);
#98 = VERTEX_POINT('',#99);
#99 = CARTESIAN_POINT('',(141.67125804359,1.102182119233E-15,
    131.17814510898));
#100 = VERTEX_POINT('',#101);
#101 = CARTESIAN_POINT('',(171.67125804359,1.102182119233E-15,
    119.17814510898));
#102 = LINE('',#103,#104);
#103 = CARTESIAN_POINT('',(141.67125804359,1.102182119233E-15,
    131.17814510898));
#104 = VECTOR('',#105,1.);
#105 = DIRECTION('',(0.928476690885,-7.43574129176E-33,-0.371390676354)
  );
#106 = ORIENTED_EDGE('',*,*,#107,.F.);
#107 = EDGE_CURVE('',#100,#100,#108,.T.);
#108 = CIRCLE('',#109,4.5);
#109 = AXIS2_PLACEMENT_3D('',#110,#111,#112);
#110 = CARTESIAN_POINT('',(170.,0.,115.));
#111 = DIRECTION('',(0.928476690885,0.,-0.371390676354));
#112 = DIRECTION('',(0.371390676354,0.,0.928476690885));
#113 = ORIENTED_EDGE('',*,*,#97,.F.);
#114 = ORIENTED_EDGE('',*,*,#115,.T.);
#115 = EDGE_CURVE('',#98,#41,#116,.T.);
#116 = CIRCLE('',#117,4.5);
#117 = AXIS2_PLACEMENT_3D('',#118,#119,#120);
#118 = CARTESIAN_POINT('',(140.,0.,127.));
#119 = DIRECTION('',(0.928476690885,0.,-0.371390676354));
#120 = DIRECTION('',(0.371390676354,0.,0.928476690885));
#121 = ORIENTED_EDGE('',*,*,#40,.T.);
#122 = ORIENTED_EDGE('',*,*,#123,.T.);
#123 = EDGE_CURVE('',#32,#98,#124,.T.);
#124 = CIRCLE('',#125,4.5);
#125 = AXIS2_PLACEMENT_3D('',#126,#127,#128);
#126 = CARTESIAN_POINT('',(140.,0.,127.));
#127 = DIRECTION('',(0.928476690885,0.,-0.371390676354));
#128 = DIRECTION('',(0.371390676354,0.,0.928476690885));
#129 = CYLINDRICAL_SURFACE('',#130,4.5);
#130 = AXIS2_PLACEMENT_3D('',#131,#132,#133);
#131 = CARTESIAN_POINT('',(140.,0.,127.));
#132 = DIRECTION('',(0.928476690885,0.,-0.371390676354));
#133 = DIRECTION('',(0.371390676354,0.,0.928476690885));
#134 = ADVANCED_FACE('',(#135),#140,.F.);
#135 = FACE_BOUND('',#136,.F.);
#136 = EDGE_LOOP('',(#137,#138,#139));
#137 = ORIENTED_EDGE('',*,*,#123,.T.);
#138 = ORIENTED_EDGE('',*,*,#115,.T.);
#139 = ORIENTED_EDGE('',*,*,#83,.T.);
#140 = PLANE('',#141);
#141 = AXIS2_PLACEMENT_3D('',#142,#143,#144);
#142 = CARTESIAN_POINT('',(140.,0.,127.));
#143 = DIRECTION('',(0.928476690885,0.,-0.371390676354));
#144 = DIRECTION('',(0.371390676354,0.,0.928476690885));
#145 = ADVANCED_FACE('',(#146),#149,.T.);
#146 = FACE_BOUND('',#147,.T.);
#147 = EDGE_LOOP('',(#148));
#148 = ORIENTED_EDGE('',*,*,#107,.T.);
#149 = PLANE('',#150);
#150 = AXIS2_PLACEMENT_3D('',#151,#152,#153);
#151 = CARTESIAN_POINT('',(170.,0.,115.));
#152 = DIRECTION('',(0.928476690885,0.,-0.371390676354));
#153 = DIRECTION('',(0.371390676354,0.,0.928476690885));
#154 = ( GEOMETRIC_REPRESENTATION_CONTEXT(3) 
GLOBAL_UNCERTAINTY_ASSIGNED_CONTEXT((#158)) GLOBAL_UNIT_ASSIGNED_CONTEXT
((#155,#156,#157)) REPRESENTATION_CONTEXT('Context #1',
  '3D Context with UNIT and UNCERTAINTY') );
#155 = ( LENGTH_UNIT() NAMED_UNIT(*) SI_UNIT(.MILLI.,.METRE.) );
#156 = ( NAMED_UNIT(*) PLANE_ANGLE_UNIT() SI_UNIT($,.RADIAN.) );
#157 = ( NAMED_UNIT(*) SI_UNIT($,.STERADIAN.) SOLID_ANGLE_UNIT() );
#158 = UNCERTAINTY_MEASURE_WITH_UNIT(LENGTH_MEASURE(1.E-07),#155,
  'distance_accuracy_value','confusion accuracy');
#159 = PRODUCT_RELATED_PRODUCT_CATEGORY('part',$,(#7));
ENDSEC;
END-ISO-10303-21;
