ISO-10303-21;
HEADER;
FILE_DESCRIPTION(('FreeCAD Model'),'2;1');
FILE_NAME('Open CASCADE Shape Model','2026-09-13T17:49:09',('FreeCAD'),(
    'FreeCAD'),'Open CASCADE STEP processor 7.8','FreeCAD','Unknown');
FILE_SCHEMA(('AUTOMOTIVE_DESIGN { 1 0 10303 214 1 1 1 1 }'));
ENDSEC;
DATA;
#1 = APPLICATION_PROTOCOL_DEFINITION('international standard',
  'automotive_design',2000,#2);
#2 = APPLICATION_CONTEXT(
  'core data for automotive mechanical design processes');
#3 = SHAPE_DEFINITION_REPRESENTATION(#4,#10);
#4 = PRODUCT_DEFINITION_SHAPE('','',#5);
#5 = PRODUCT_DEFINITION('design','',#6,#9);
#6 = PRODUCT_DEFINITION_FORMATION('','',#7);
#7 = PRODUCT('Open CASCADE STEP translator 7.8 4',
  'Open CASCADE STEP translator 7.8 4','',(#8));
#8 = PRODUCT_CONTEXT('',#2,'mechanical');
#9 = PRODUCT_DEFINITION_CONTEXT('part definition',#2,'design');
#10 = ADVANCED_BREP_SHAPE_REPRESENTATION('',(#11,#15),#315);
#11 = AXIS2_PLACEMENT_3D('',#12,#13,#14);
#12 = CARTESIAN_POINT('',(0.,0.,0.));
#13 = DIRECTION('',(0.,0.,1.));
#14 = DIRECTION('',(1.,0.,-0.));
#15 = MANIFOLD_SOLID_BREP('',#16);
#16 = CLOSED_SHELL('',(#17,#58,#115,#167,#217,#234,#246,#268,#285,#297,
    #306));
#17 = ADVANCED_FACE('',(#18),#53,.F.);
#18 = FACE_BOUND('',#19,.F.);
#19 = EDGE_LOOP('',(#20,#30,#38,#46));
#20 = ORIENTED_EDGE('',*,*,#21,.F.);
#21 = EDGE_CURVE('',#22,#24,#26,.T.);
#22 = VERTEX_POINT('',#23);
#23 = CARTESIAN_POINT('',(-6.,115.,0.));
#24 = VERTEX_POINT('',#25);
#25 = CARTESIAN_POINT('',(-17.72392160232,2.645751311065,0.));
#26 = LINE('',#27,#28);
#27 = CARTESIAN_POINT('',(-6.,115.,0.));
#28 = VECTOR('',#29,1.);
#29 = DIRECTION('',(-0.10378432962,-0.994599825521,0.));
#30 = ORIENTED_EDGE('',*,*,#31,.T.);
#31 = EDGE_CURVE('',#22,#32,#34,.T.);
#32 = VERTEX_POINT('',#33);
#33 = CARTESIAN_POINT('',(-6.,115.,6.));
#34 = LINE('',#35,#36);
#35 = CARTESIAN_POINT('',(-6.,115.,0.));
#36 = VECTOR('',#37,1.);
#37 = DIRECTION('',(0.,0.,1.));
#38 = ORIENTED_EDGE('',*,*,#39,.T.);
#39 = EDGE_CURVE('',#32,#40,#42,.T.);
#40 = VERTEX_POINT('',#41);
#41 = CARTESIAN_POINT('',(-17.72392160232,2.645751311065,6.));
#42 = LINE('',#43,#44);
#43 = CARTESIAN_POINT('',(-6.,115.,6.));
#44 = VECTOR('',#45,1.);
#45 = DIRECTION('',(-0.10378432962,-0.994599825521,0.));
#46 = ORIENTED_EDGE('',*,*,#47,.F.);
#47 = EDGE_CURVE('',#24,#40,#48,.T.);
#48 = ELLIPSE('',#49,4.021717978793,4.);
#49 = AXIS2_PLACEMENT_3D('',#50,#51,#52);
#50 = CARTESIAN_POINT('',(-18.,0.,3.));
#51 = DIRECTION('',(0.994599825521,-0.10378432962,0.));
#52 = DIRECTION('',(0.10378432962,0.994599825521,0.));
#53 = PLANE('',#54);
#54 = AXIS2_PLACEMENT_3D('',#55,#56,#57);
#55 = CARTESIAN_POINT('',(-6.,115.,0.));
#56 = DIRECTION('',(0.994599825521,-0.10378432962,0.));
#57 = DIRECTION('',(-0.10378432962,-0.994599825521,0.));
#58 = ADVANCED_FACE('',(#59,#84),#110,.F.);
#59 = FACE_BOUND('',#60,.F.);
#60 = EDGE_LOOP('',(#61,#62,#70,#78));
#61 = ORIENTED_EDGE('',*,*,#21,.T.);
#62 = ORIENTED_EDGE('',*,*,#63,.T.);
#63 = EDGE_CURVE('',#24,#64,#66,.T.);
#64 = VERTEX_POINT('',#65);
#65 = CARTESIAN_POINT('',(17.723921602324,2.645751311065,0.));
#66 = LINE('',#67,#68);
#67 = CARTESIAN_POINT('',(-18.,2.645751311065,0.));
#68 = VECTOR('',#69,1.);
#69 = DIRECTION('',(1.,0.,0.));
#70 = ORIENTED_EDGE('',*,*,#71,.T.);
#71 = EDGE_CURVE('',#64,#72,#74,.T.);
#72 = VERTEX_POINT('',#73);
#73 = CARTESIAN_POINT('',(6.,115.,0.));
#74 = LINE('',#75,#76);
#75 = CARTESIAN_POINT('',(18.,0.,0.));
#76 = VECTOR('',#77,1.);
#77 = DIRECTION('',(-0.10378432962,0.994599825521,0.));
#78 = ORIENTED_EDGE('',*,*,#79,.T.);
#79 = EDGE_CURVE('',#72,#22,#80,.T.);
#80 = LINE('',#81,#82);
#81 = CARTESIAN_POINT('',(6.,115.,0.));
#82 = VECTOR('',#83,1.);
#83 = DIRECTION('',(-1.,0.,0.));
#84 = FACE_BOUND('',#85,.F.);
#85 = EDGE_LOOP('',(#86,#96,#104));
#86 = ORIENTED_EDGE('',*,*,#87,.T.);
#87 = EDGE_CURVE('',#88,#90,#92,.T.);
#88 = VERTEX_POINT('',#89);
#89 = CARTESIAN_POINT('',(0.,97.,0.));
#90 = VERTEX_POINT('',#91);
#91 = CARTESIAN_POINT('',(11.,10.,0.));
#92 = LINE('',#93,#94);
#93 = CARTESIAN_POINT('',(8.265333631419,31.62872491514,
    1.110223024625E-16));
#94 = VECTOR('',#95,1.);
#95 = DIRECTION('',(0.125438113889,-0.992101446216,0.));
#96 = ORIENTED_EDGE('',*,*,#97,.T.);
#97 = EDGE_CURVE('',#90,#98,#100,.T.);
#98 = VERTEX_POINT('',#99);
#99 = CARTESIAN_POINT('',(-11.,10.,0.));
#100 = LINE('',#101,#102);
#101 = CARTESIAN_POINT('',(-5.5,10.,0.));
#102 = VECTOR('',#103,1.);
#103 = DIRECTION('',(-1.,0.,0.));
#104 = ORIENTED_EDGE('',*,*,#105,.T.);
#105 = EDGE_CURVE('',#98,#88,#106,.T.);
#106 = LINE('',#107,#108);
#107 = CARTESIAN_POINT('',(-2.765333631419,75.12872491514,
    1.110223024625E-16));
#108 = VECTOR('',#109,1.);
#109 = DIRECTION('',(0.125438113889,0.992101446216,0.));
#110 = PLANE('',#111);
#111 = AXIS2_PLACEMENT_3D('',#112,#113,#114);
#112 = CARTESIAN_POINT('',(0.,52.558170061416,0.));
#113 = DIRECTION('',(0.,0.,1.));
#114 = DIRECTION('',(1.,0.,0.));
#115 = ADVANCED_FACE('',(#116,#143),#162,.T.);
#116 = FACE_BOUND('',#117,.T.);
#117 = EDGE_LOOP('',(#118,#128,#135,#136));
#118 = ORIENTED_EDGE('',*,*,#119,.T.);
#119 = EDGE_CURVE('',#120,#122,#124,.T.);
#120 = VERTEX_POINT('',#121);
#121 = CARTESIAN_POINT('',(-18.,9.797174393179E-16,7.));
#122 = VERTEX_POINT('',#123);
#123 = CARTESIAN_POINT('',(18.,9.797174393179E-16,7.));
#124 = LINE('',#125,#126);
#125 = CARTESIAN_POINT('',(-18.,9.797174393179E-16,7.));
#126 = VECTOR('',#127,1.);
#127 = DIRECTION('',(1.,0.,0.));
#128 = ORIENTED_EDGE('',*,*,#129,.F.);
#129 = EDGE_CURVE('',#122,#122,#130,.T.);
#130 = CIRCLE('',#131,4.);
#131 = AXIS2_PLACEMENT_3D('',#132,#133,#134);
#132 = CARTESIAN_POINT('',(18.,0.,3.));
#133 = DIRECTION('',(1.,0.,-0.));
#134 = DIRECTION('',(0.,0.,1.));
#135 = ORIENTED_EDGE('',*,*,#119,.F.);
#136 = ORIENTED_EDGE('',*,*,#137,.T.);
#137 = EDGE_CURVE('',#120,#120,#138,.T.);
#138 = CIRCLE('',#139,4.);
#139 = AXIS2_PLACEMENT_3D('',#140,#141,#142);
#140 = CARTESIAN_POINT('',(-18.,0.,3.));
#141 = DIRECTION('',(1.,0.,-0.));
#142 = DIRECTION('',(0.,0.,1.));
#143 = FACE_BOUND('',#144,.T.);
#144 = EDGE_LOOP('',(#145,#146,#147,#156));
#145 = ORIENTED_EDGE('',*,*,#47,.F.);
#146 = ORIENTED_EDGE('',*,*,#63,.T.);
#147 = ORIENTED_EDGE('',*,*,#148,.F.);
#148 = EDGE_CURVE('',#149,#64,#151,.T.);
#149 = VERTEX_POINT('',#150);
#150 = CARTESIAN_POINT('',(17.723921602324,2.645751311065,6.));
#151 = ELLIPSE('',#152,4.021717978793,4.);
#152 = AXIS2_PLACEMENT_3D('',#153,#154,#155);
#153 = CARTESIAN_POINT('',(18.,0.,3.));
#154 = DIRECTION('',(-0.994599825521,-0.10378432962,0.));
#155 = DIRECTION('',(0.10378432962,-0.994599825521,0.));
#156 = ORIENTED_EDGE('',*,*,#157,.F.);
#157 = EDGE_CURVE('',#40,#149,#158,.T.);
#158 = LINE('',#159,#160);
#159 = CARTESIAN_POINT('',(-18.,2.645751311065,6.));
#160 = VECTOR('',#161,1.);
#161 = DIRECTION('',(1.,0.,0.));
#162 = CYLINDRICAL_SURFACE('',#163,4.);
#163 = AXIS2_PLACEMENT_3D('',#164,#165,#166);
#164 = CARTESIAN_POINT('',(-18.,0.,3.));
#165 = DIRECTION('',(1.,0.,0.));
#166 = DIRECTION('',(0.,0.,1.));
#167 = ADVANCED_FACE('',(#168,#186),#212,.T.);
#168 = FACE_BOUND('',#169,.T.);
#169 = EDGE_LOOP('',(#170,#171,#172,#180));
#170 = ORIENTED_EDGE('',*,*,#39,.T.);
#171 = ORIENTED_EDGE('',*,*,#157,.T.);
#172 = ORIENTED_EDGE('',*,*,#173,.T.);
#173 = EDGE_CURVE('',#149,#174,#176,.T.);
#174 = VERTEX_POINT('',#175);
#175 = CARTESIAN_POINT('',(6.,115.,6.));
#176 = LINE('',#177,#178);
#177 = CARTESIAN_POINT('',(18.,0.,6.));
#178 = VECTOR('',#179,1.);
#179 = DIRECTION('',(-0.10378432962,0.994599825521,0.));
#180 = ORIENTED_EDGE('',*,*,#181,.T.);
#181 = EDGE_CURVE('',#174,#32,#182,.T.);
#182 = LINE('',#183,#184);
#183 = CARTESIAN_POINT('',(6.,115.,6.));
#184 = VECTOR('',#185,1.);
#185 = DIRECTION('',(-1.,0.,0.));
#186 = FACE_BOUND('',#187,.T.);
#187 = EDGE_LOOP('',(#188,#198,#206));
#188 = ORIENTED_EDGE('',*,*,#189,.T.);
#189 = EDGE_CURVE('',#190,#192,#194,.T.);
#190 = VERTEX_POINT('',#191);
#191 = CARTESIAN_POINT('',(0.,97.,6.));
#192 = VERTEX_POINT('',#193);
#193 = CARTESIAN_POINT('',(11.,10.,6.));
#194 = LINE('',#195,#196);
#195 = CARTESIAN_POINT('',(8.265333631419,31.62872491514,6.));
#196 = VECTOR('',#197,1.);
#197 = DIRECTION('',(0.125438113889,-0.992101446216,0.));
#198 = ORIENTED_EDGE('',*,*,#199,.T.);
#199 = EDGE_CURVE('',#192,#200,#202,.T.);
#200 = VERTEX_POINT('',#201);
#201 = CARTESIAN_POINT('',(-11.,10.,6.));
#202 = LINE('',#203,#204);
#203 = CARTESIAN_POINT('',(-5.5,10.,6.));
#204 = VECTOR('',#205,1.);
#205 = DIRECTION('',(-1.,0.,0.));
#206 = ORIENTED_EDGE('',*,*,#207,.T.);
#207 = EDGE_CURVE('',#200,#190,#208,.T.);
#208 = LINE('',#209,#210);
#209 = CARTESIAN_POINT('',(-2.765333631419,75.12872491514,6.));
#210 = VECTOR('',#211,1.);
#211 = DIRECTION('',(0.125438113889,0.992101446216,0.));
#212 = PLANE('',#213);
#213 = AXIS2_PLACEMENT_3D('',#214,#215,#216);
#214 = CARTESIAN_POINT('',(0.,52.558170061416,6.));
#215 = DIRECTION('',(0.,0.,1.));
#216 = DIRECTION('',(1.,0.,0.));
#217 = ADVANCED_FACE('',(#218),#229,.F.);
#218 = FACE_BOUND('',#219,.F.);
#219 = EDGE_LOOP('',(#220,#226,#227,#228));
#220 = ORIENTED_EDGE('',*,*,#221,.T.);
#221 = EDGE_CURVE('',#72,#174,#222,.T.);
#222 = LINE('',#223,#224);
#223 = CARTESIAN_POINT('',(6.,115.,0.));
#224 = VECTOR('',#225,1.);
#225 = DIRECTION('',(0.,0.,1.));
#226 = ORIENTED_EDGE('',*,*,#181,.T.);
#227 = ORIENTED_EDGE('',*,*,#31,.F.);
#228 = ORIENTED_EDGE('',*,*,#79,.F.);
#229 = PLANE('',#230);
#230 = AXIS2_PLACEMENT_3D('',#231,#232,#233);
#231 = CARTESIAN_POINT('',(6.,115.,0.));
#232 = DIRECTION('',(0.,-1.,0.));
#233 = DIRECTION('',(-1.,0.,0.));
#234 = ADVANCED_FACE('',(#235),#241,.F.);
#235 = FACE_BOUND('',#236,.F.);
#236 = EDGE_LOOP('',(#237,#238,#239,#240));
#237 = ORIENTED_EDGE('',*,*,#71,.F.);
#238 = ORIENTED_EDGE('',*,*,#148,.F.);
#239 = ORIENTED_EDGE('',*,*,#173,.T.);
#240 = ORIENTED_EDGE('',*,*,#221,.F.);
#241 = PLANE('',#242);
#242 = AXIS2_PLACEMENT_3D('',#243,#244,#245);
#243 = CARTESIAN_POINT('',(18.,0.,0.));
#244 = DIRECTION('',(-0.994599825521,-0.10378432962,0.));
#245 = DIRECTION('',(-0.10378432962,0.994599825521,0.));
#246 = ADVANCED_FACE('',(#247),#263,.T.);
#247 = FACE_BOUND('',#248,.T.);
#248 = EDGE_LOOP('',(#249,#250,#256,#257));
#249 = ORIENTED_EDGE('',*,*,#87,.T.);
#250 = ORIENTED_EDGE('',*,*,#251,.T.);
#251 = EDGE_CURVE('',#90,#192,#252,.T.);
#252 = LINE('',#253,#254);
#253 = CARTESIAN_POINT('',(11.,10.,-1.));
#254 = VECTOR('',#255,1.);
#255 = DIRECTION('',(0.,0.,1.));
#256 = ORIENTED_EDGE('',*,*,#189,.F.);
#257 = ORIENTED_EDGE('',*,*,#258,.F.);
#258 = EDGE_CURVE('',#88,#190,#259,.T.);
#259 = LINE('',#260,#261);
#260 = CARTESIAN_POINT('',(0.,97.,-1.));
#261 = VECTOR('',#262,1.);
#262 = DIRECTION('',(0.,0.,1.));
#263 = PLANE('',#264);
#264 = AXIS2_PLACEMENT_3D('',#265,#266,#267);
#265 = CARTESIAN_POINT('',(11.,10.,-1.));
#266 = DIRECTION('',(-0.992101446216,-0.125438113889,0.));
#267 = DIRECTION('',(-0.125438113889,0.992101446216,0.));
#268 = ADVANCED_FACE('',(#269),#280,.T.);
#269 = FACE_BOUND('',#270,.T.);
#270 = EDGE_LOOP('',(#271,#272,#273,#274));
#271 = ORIENTED_EDGE('',*,*,#105,.T.);
#272 = ORIENTED_EDGE('',*,*,#258,.T.);
#273 = ORIENTED_EDGE('',*,*,#207,.F.);
#274 = ORIENTED_EDGE('',*,*,#275,.F.);
#275 = EDGE_CURVE('',#98,#200,#276,.T.);
#276 = LINE('',#277,#278);
#277 = CARTESIAN_POINT('',(-11.,10.,-1.));
#278 = VECTOR('',#279,1.);
#279 = DIRECTION('',(0.,0.,1.));
#280 = PLANE('',#281);
#281 = AXIS2_PLACEMENT_3D('',#282,#283,#284);
#282 = CARTESIAN_POINT('',(0.,97.,-1.));
#283 = DIRECTION('',(0.992101446216,-0.125438113889,0.));
#284 = DIRECTION('',(-0.125438113889,-0.992101446216,0.));
#285 = ADVANCED_FACE('',(#286),#292,.T.);
#286 = FACE_BOUND('',#287,.T.);
#287 = EDGE_LOOP('',(#288,#289,#290,#291));
#288 = ORIENTED_EDGE('',*,*,#97,.T.);
#289 = ORIENTED_EDGE('',*,*,#275,.T.);
#290 = ORIENTED_EDGE('',*,*,#199,.F.);
#291 = ORIENTED_EDGE('',*,*,#251,.F.);
#292 = PLANE('',#293);
#293 = AXIS2_PLACEMENT_3D('',#294,#295,#296);
#294 = CARTESIAN_POINT('',(-11.,10.,-1.));
#295 = DIRECTION('',(0.,1.,0.));
#296 = DIRECTION('',(1.,0.,0.));
#297 = ADVANCED_FACE('',(#298),#301,.F.);
#298 = FACE_BOUND('',#299,.F.);
#299 = EDGE_LOOP('',(#300));
#300 = ORIENTED_EDGE('',*,*,#137,.T.);
#301 = PLANE('',#302);
#302 = AXIS2_PLACEMENT_3D('',#303,#304,#305);
#303 = CARTESIAN_POINT('',(-18.,0.,3.));
#304 = DIRECTION('',(1.,0.,0.));
#305 = DIRECTION('',(0.,0.,1.));
#306 = ADVANCED_FACE('',(#307),#310,.T.);
#307 = FACE_BOUND('',#308,.T.);
#308 = EDGE_LOOP('',(#309));
#309 = ORIENTED_EDGE('',*,*,#129,.T.);
#310 = PLANE('',#311);
#311 = AXIS2_PLACEMENT_3D('',#312,#313,#314);
#312 = CARTESIAN_POINT('',(18.,0.,3.));
#313 = DIRECTION('',(1.,0.,0.));
#314 = DIRECTION('',(0.,0.,1.));
#315 = ( GEOMETRIC_REPRESENTATION_CONTEXT(3) 
GLOBAL_UNCERTAINTY_ASSIGNED_CONTEXT((#319)) GLOBAL_UNIT_ASSIGNED_CONTEXT
((#316,#317,#318)) REPRESENTATION_CONTEXT('Context #1',
  '3D Context with UNIT and UNCERTAINTY') );
#316 = ( LENGTH_UNIT() NAMED_UNIT(*) SI_UNIT(.MILLI.,.METRE.) );
#317 = ( NAMED_UNIT(*) PLANE_ANGLE_UNIT() SI_UNIT($,.RADIAN.) );
#318 = ( NAMED_UNIT(*) SI_UNIT($,.STERADIAN.) SOLID_ANGLE_UNIT() );
#319 = UNCERTAINTY_MEASURE_WITH_UNIT(LENGTH_MEASURE(1.E-07),#316,
  'distance_accuracy_value','confusion accuracy');
#320 = PRODUCT_RELATED_PRODUCT_CATEGORY('part',$,(#7));
ENDSEC;
END-ISO-10303-21;
